<?xml version="1.0" standalone="no"?>
 <!DOCTYPE svg PUBLIC "-//W3C//DTD SVG 1.1//EN" 
 "http://www.w3.org/Graphics/SVG/1.1/DTD/svg11.dtd"> 
<svg
  xmlns:svg="http://www.w3.org/2000/svg"
  xmlns="http://www.w3.org/2000/svg"
  xmlns:xlink="http://www.w3.org/1999/xlink"
  xmlns:inkscape="http://www.inkscape.org/namespaces/inkscape"
  version="1.1"
  width="297.0022mm" height="210.0072mm" viewBox="0.0000 0.0000 297.0022 210.0072">
<title>SVG Image created as EV_Guardian_Carrier-F_Paste.svg date 2026-06-20T00:43:51 </title>
  <desc>Image generated by PCBNEW </desc>
<g style="fill:#000000; fill-opacity:1.0000;stroke:#000000; stroke-opacity:1.0000;
stroke-linecap:round; stroke-linejoin:round;"
 transform="translate(0 0) scale(1 1)">
<path style="fill:#B4A09A; fill-opacity:0.9000; stroke:none;fill-rule:evenodd;"
d="M 95.5000,85.0000
95.6070,85.0156
95.7179,85.0698
95.8052,85.1571
95.8594,85.2680
95.8750,85.3750
95.8750,87.6250
95.8594,87.7320
95.8052,87.8429
95.7179,87.9302
95.6070,87.9844
95.5000,88.0000
91.5000,88.0000
91.3930,87.9844
91.2821,87.9302
91.1948,87.8429
91.1406,87.7320
91.1250,87.6250
91.1250,85.3750
91.1406,85.2680
91.1948,85.1571
91.2821,85.0698
91.3930,85.0156
91.5000,85.0000
Z" /> 
<path style="fill:#B4A09A; fill-opacity:0.9000; stroke:none;fill-rule:evenodd;"
d="M 95.5000,76.5000
95.6070,76.5156
95.7179,76.5698
95.8052,76.6571
95.8594,76.7680
95.8750,76.8750
95.8750,79.1250
95.8594,79.2320
95.8052,79.3429
95.7179,79.4302
95.6070,79.4844
95.5000,79.5000
91.5000,79.5000
91.3930,79.4844
91.2821,79.4302
91.1948,79.3429
91.1406,79.2320
91.1250,79.1250
91.1250,76.8750
91.1406,76.7680
91.1948,76.6571
91.2821,76.5698
91.3930,76.5156
91.5000,76.5000
Z" /> 
<path style="fill:#B4A09A; fill-opacity:0.9000; stroke:none;fill-rule:evenodd;"
d="M 81.3500,80.2000
81.9500,83.8000
83.0500,83.8000
83.6500,80.2000
Z" /> 
<path style="fill:#B4A09A; fill-opacity:0.9000; stroke:none;fill-rule:evenodd;"
d="M 83.6500,89.6000
83.0500,86.0000
81.9500,86.0000
81.3500,89.6000
Z" /> 
</g> 
</svg>
