<?xml version="1.0" standalone="no"?>
 <!DOCTYPE svg PUBLIC "-//W3C//DTD SVG 1.1//EN" 
 "http://www.w3.org/Graphics/SVG/1.1/DTD/svg11.dtd"> 
<svg
  xmlns:svg="http://www.w3.org/2000/svg"
  xmlns="http://www.w3.org/2000/svg"
  xmlns:xlink="http://www.w3.org/1999/xlink"
  xmlns:inkscape="http://www.inkscape.org/namespaces/inkscape"
  version="1.1"
  width="297.0022mm" height="210.0072mm" viewBox="0.0000 0.0000 297.0022 210.0072">
<title>SVG Image created as EV_Guardian_Carrier-B_Cu.svg date 2026-06-20T00:43:51 </title>
  <desc>Image generated by PCBNEW </desc>
<g style="fill:#000000; fill-opacity:1.0000;stroke:#000000; stroke-opacity:1.0000;
stroke-linecap:round; stroke-linejoin:round;"
 transform="translate(0 0) scale(1 1)">
<path style="fill:#4D7FC4; fill-opacity:1.0000; stroke:none;fill-rule:evenodd;"
d="M 73.0000,105.5000
73.0000,107.5000
71.0000,107.5000
71.0000,105.5000
Z" /> 
</g>
<g style="fill:#4D7FC4; fill-opacity:1.0000; stroke:none;">
<circle cx="64.4000" cy="106.5000" r="1.0000" /> 
<path style="fill:#4D7FC4; fill-opacity:1.0000; stroke:none;fill-rule:evenodd;"
d="M 123.4000,93.1000
123.4000,94.9000
121.6000,94.9000
121.6000,93.1000
Z" /> 
<circle cx="119.9600" cy="94.0000" r="0.9000" /> 
<path style="fill:#4D7FC4; fill-opacity:1.0000; stroke:none;fill-rule:evenodd;"
d="M 118.8300,103.9000
118.8300,102.1000
120.6300,102.1000
120.6300,103.9000
Z" /> 
<circle cx="122.2700" cy="103.0000" r="0.9000" /> 
<circle cx="70.9200" cy="71.5000" r="0.8000" /> 
<circle cx="55.6800" cy="71.5000" r="0.8000" /> 
<circle cx="125.3900" cy="61.9400" r="0.9500" /> 
<circle cx="125.7150" cy="76.1650" r="0.9500" /> 
<circle cx="148.5650" cy="61.9150" r="0.9500" /> 
<circle cx="148.5150" cy="65.0400" r="0.9500" /> 
<circle cx="148.6150" cy="72.4650" r="0.9500" /> 
<circle cx="148.6150" cy="75.9400" r="0.9500" /> 
<circle cx="192.6400" cy="70.6741" r="0.7800" /> 
<circle cx="192.6400" cy="63.0541" r="0.7800" /> 
<circle cx="192.6400" cy="65.5941" r="0.7800" /> 
<circle cx="191.8000" cy="77.0793" r="2.1080" /> 
<circle cx="161.3000" cy="77.0793" r="2.1080" /> 
<circle cx="161.3000" cy="56.7393" r="2.1080" /> 
<circle cx="191.8000" cy="56.7393" r="2.1080" /> 
<circle cx="192.6400" cy="68.1341" r="0.7800" /> 
<circle cx="212.6500" cy="127.1700" r="0.9525" /> 
<circle cx="225.3500" cy="127.1700" r="0.9525" /> 
<circle cx="210.1100" cy="127.1700" r="0.9525" /> 
<circle cx="222.8100" cy="127.1700" r="0.9525" /> 
<circle cx="220.2700" cy="127.1700" r="0.9525" /> 
<circle cx="227.8900" cy="127.1700" r="0.9525" /> 
<circle cx="215.1900" cy="127.1700" r="0.9525" /> 
<circle cx="217.7300" cy="127.1700" r="0.9525" /> 
<circle cx="113.1200" cy="110.0000" r="0.8000" /> 
<circle cx="97.8800" cy="110.0000" r="0.8000" /> 
<circle cx="113.5000" cy="93.5000" r="0.8000" /> 
<circle cx="98.2600" cy="93.5000" r="0.8000" /> 
<path style="fill:#4D7FC4; fill-opacity:1.0000; stroke:none;fill-rule:evenodd;"
d="M 73.8000,68.2350
72.1000,68.2350
72.1000,66.5350
73.8000,66.5350
Z" /> 
<circle cx="75.4900" cy="67.3850" r="0.8500" /> 
<circle cx="78.0300" cy="67.3850" r="0.8500" /> 
<circle cx="80.5700" cy="67.3850" r="0.8500" /> 
<circle cx="83.1100" cy="67.3850" r="0.8500" /> 
<circle cx="85.6500" cy="67.3850" r="0.8500" /> 
<circle cx="70.9200" cy="76.5000" r="0.8000" /> 
<circle cx="55.6800" cy="76.5000" r="0.8000" /> 
<circle cx="137.9779" cy="93.6890" r="0.9500" /> 
<circle cx="135.4379" cy="93.6890" r="0.9119" /> 
<circle cx="137.9779" cy="117.1490" r="0.9500" /> 
<circle cx="135.4379" cy="117.1490" r="0.9500" /> 
<circle cx="97.7600" cy="103.0000" r="0.8000" /> 
<circle cx="113.0000" cy="103.0000" r="0.8000" /> 
<path style="fill:#4D7FC4; fill-opacity:1.0000; stroke:none;fill-rule:evenodd;"
d="M 99.6400,76.4120
98.0400,76.4120
98.0400,74.8120
99.6400,74.8120
Z" /> 
<path style="fill:#4D7FC4; fill-opacity:1.0000; stroke:none;fill-rule:evenodd;"
d="M 99.6400,73.8720
98.0400,73.8720
98.0400,72.2720
99.6400,72.2720
Z" /> 
<circle cx="98.8146" cy="64.8170" r="0.8000" /> 
<circle cx="98.8400" cy="62.2770" r="0.8000" /> 
<path style="fill:#4D7FC4; fill-opacity:1.0000; stroke:none;fill-rule:evenodd;"
d="M 118.4360,73.9990
116.8360,73.9990
116.8360,72.3990
118.4360,72.3990
Z" /> 
<path style="fill:#4D7FC4; fill-opacity:1.0000; stroke:none;fill-rule:evenodd;"
d="M 118.4360,76.5390
116.8360,76.5390
116.8360,74.9390
118.4360,74.9390
Z" /> 
<circle cx="117.7376" cy="64.8170" r="0.8000" /> 
<circle cx="117.7630" cy="62.2770" r="0.8000" /> 
<circle cx="161.1000" cy="95.2250" r="1.1250" /> 
<circle cx="153.9000" cy="95.2250" r="1.1250" /> 
<circle cx="161.1000" cy="126.7750" r="1.1250" /> 
<circle cx="153.9000" cy="126.7750" r="1.1250" /> 
<path style="fill:#4D7FC4; fill-opacity:1.0000; stroke:none;fill-rule:evenodd;"
d="M 119.2050,113.6800
119.2050,112.1800
120.2550,112.1800
120.2550,113.6800
Z" /> 
</g>
<g style="fill:none; 
stroke:#4D7FC4; stroke-width:1.0500; stroke-opacity:1; 
stroke-linecap:round; stroke-linejoin:round;">
<path d="M121.0000 112.7050
L121.0000 113.1550
" />
<path d="M122.2700 112.7050
L122.2700 113.1550
" />
</g>
<g style="fill:#4D7FC4; fill-opacity:1.0000; stroke:none;">
<circle cx="75.8800" cy="71.5000" r="0.8000" /> 
<circle cx="91.1200" cy="71.5000" r="0.8000" /> 
<circle cx="220.7000" cy="77.2300" r="0.9500" /> 
<circle cx="208.0000" cy="77.2300" r="0.9500" /> 
<circle cx="210.5400" cy="77.2300" r="0.9500" /> 
<circle cx="223.2400" cy="77.2300" r="0.9500" /> 
<circle cx="213.0800" cy="77.2300" r="0.9500" /> 
<circle cx="215.6200" cy="77.2300" r="0.9500" /> 
<circle cx="218.1600" cy="77.2300" r="0.9500" /> 
<circle cx="213.6050" cy="115.2000" r="0.7040" /> 
<path style="fill:#4D7FC4; fill-opacity:1.0000; stroke:none;fill-rule:evenodd;"
d="M 186.3690,115.9040
184.9610,115.9040
184.9610,114.4960
186.3690,114.4960
Z" /> 
<circle cx="188.2050" cy="115.2000" r="0.7040" /> 
<circle cx="190.7450" cy="115.2000" r="0.7040" /> 
<circle cx="193.2850" cy="115.2000" r="0.7040" /> 
<circle cx="195.8250" cy="115.2000" r="0.7040" /> 
<circle cx="198.3650" cy="115.2000" r="0.7040" /> 
<circle cx="200.9050" cy="115.2000" r="0.7040" /> 
<circle cx="203.4450" cy="115.2000" r="0.7040" /> 
<circle cx="205.9850" cy="115.2000" r="0.7040" /> 
<circle cx="208.5250" cy="115.2000" r="0.7040" /> 
<circle cx="211.0650" cy="115.2000" r="0.7040" /> 
<circle cx="216.1450" cy="115.2000" r="0.7040" /> 
<circle cx="218.6850" cy="115.2000" r="0.7040" /> 
<circle cx="221.2250" cy="115.2000" r="0.7040" /> 
<circle cx="223.7650" cy="115.2000" r="0.7040" /> 
<circle cx="226.3050" cy="115.2000" r="0.7040" /> 
<circle cx="228.8450" cy="115.2000" r="0.7040" /> 
<circle cx="231.3850" cy="115.2000" r="0.7040" /> 
<circle cx="185.6650" cy="89.8000" r="0.7040" /> 
<circle cx="188.2050" cy="89.8000" r="0.7040" /> 
<circle cx="193.2850" cy="89.8000" r="0.7040" /> 
<circle cx="195.8250" cy="89.8000" r="0.7040" /> 
<circle cx="198.3650" cy="89.8000" r="0.7040" /> 
<circle cx="200.9050" cy="89.8000" r="0.7040" /> 
<circle cx="203.4450" cy="89.8000" r="0.7040" /> 
<circle cx="205.9850" cy="89.8000" r="0.7040" /> 
<circle cx="208.5250" cy="89.8000" r="0.7040" /> 
<circle cx="211.0650" cy="89.8000" r="0.7040" /> 
<circle cx="213.6050" cy="89.8000" r="0.7040" /> 
<circle cx="216.1450" cy="89.8000" r="0.7040" /> 
<circle cx="218.6850" cy="89.8000" r="0.7040" /> 
<circle cx="221.2250" cy="89.8000" r="0.7040" /> 
<circle cx="223.7650" cy="89.8000" r="0.7040" /> 
<circle cx="226.3050" cy="89.8000" r="0.7040" /> 
<circle cx="228.8450" cy="89.8000" r="0.7040" /> 
<circle cx="231.3850" cy="89.8000" r="0.7040" /> 
<circle cx="190.7450" cy="89.8000" r="0.7040" /> 
<circle cx="188.5000" cy="125.2200" r="0.9500" /> 
<circle cx="191.0400" cy="125.2200" r="0.9500" /> 
<circle cx="185.9600" cy="125.2200" r="0.9500" /> 
<circle cx="180.8800" cy="125.2200" r="0.9500" /> 
<circle cx="193.5800" cy="125.2200" r="0.9500" /> 
<circle cx="183.4200" cy="125.2200" r="0.9500" /> 
<circle cx="196.1200" cy="125.2200" r="0.9500" /> 
<path style="fill:#4D7FC4; fill-opacity:1.0000; stroke:none;fill-rule:evenodd;"
d="M 84.9000,105.8750
84.9190,105.7793
84.9732,105.6982
85.0543,105.6440
85.1500,105.6250
85.8500,105.6250
85.9457,105.6440
86.0268,105.6982
86.0810,105.7793
86.1000,105.8750
86.1000,107.1250
86.0810,107.2207
86.0268,107.3018
85.9457,107.3560
85.8500,107.3750
85.1500,107.3750
85.0543,107.3560
84.9732,107.3018
84.9190,107.2207
84.9000,107.1250
Z" /> 
</g>
<g style="fill:none; 
stroke:#4D7FC4; stroke-width:1.2000; stroke-opacity:1; 
stroke-linecap:round; stroke-linejoin:round;">
<path d="M87.5000 106.2250
L87.5000 106.7750
" />
</g>
<g style="fill:#4D7FC4; fill-opacity:1.0000; stroke:none;">
<circle cx="228.0000" cy="123.5000" r="0.3000" /> 
<circle cx="227.5000" cy="117.5000" r="0.3000" /> 
<circle cx="71.0000" cy="80.0000" r="0.3000" /> 
<circle cx="136.5000" cy="80.5000" r="0.3000" /> 
<circle cx="177.5904" cy="127.5904" r="0.3000" /> 
<circle cx="172.5000" cy="127.5000" r="0.3000" /> 
<circle cx="201.0000" cy="95.1000" r="0.3000" /> 
<circle cx="201.0000" cy="93.0000" r="0.3000" /> 
<circle cx="199.4000" cy="76.5000" r="0.3000" /> 
<circle cx="202.5000" cy="76.4000" r="0.3000" /> 
<circle cx="136.5000" cy="76.0000" r="0.3000" /> 
<circle cx="71.0000" cy="82.5000" r="0.3000" /> 
<circle cx="138.5000" cy="79.2000" r="0.3000" /> 
<circle cx="213.0000" cy="82.5000" r="0.3000" /> 
<circle cx="218.0000" cy="82.5000" r="0.3000" /> 
<circle cx="172.5000" cy="128.5000" r="0.3000" /> 
<circle cx="178.0046" cy="128.5904" r="0.3000" /> 
<circle cx="192.0000" cy="90.5000" r="0.3000" /> 
<circle cx="191.8482" cy="87.8482" r="0.3000" /> 
<circle cx="198.0000" cy="138.5000" r="0.9500" /> 
<circle cx="75.0000" cy="65.0000" r="0.3000" /> 
<circle cx="75.0000" cy="64.0000" r="0.3000" /> 
<circle cx="198.0000" cy="141.5000" r="0.9500" /> 
<circle cx="229.4343" cy="122.4000" r="0.3000" /> 
<circle cx="229.4343" cy="122.4000" r="0.3000" /> 
<circle cx="229.0000" cy="118.4000" r="0.3000" /> 
<circle cx="228.2411" cy="118.0000" r="0.3000" /> 
<circle cx="229.5214" cy="123.1953" r="0.3000" /> 
<circle cx="195.5000" cy="117.9000" r="0.3000" /> 
<circle cx="207.5000" cy="87.0000" r="0.3000" /> 
<circle cx="218.5000" cy="87.2000" r="0.3000" /> 
<circle cx="215.4736" cy="87.2032" r="0.3000" /> 
<circle cx="217.0000" cy="86.5000" r="0.3000" /> 
<circle cx="214.0000" cy="86.5000" r="0.3000" /> 
<circle cx="215.5450" cy="88.0000" r="0.3000" /> 
<circle cx="218.5000" cy="88.0000" r="0.3000" /> 
<circle cx="224.0000" cy="85.7858" r="0.3000" /> 
<circle cx="232.8324" cy="120.7789" r="0.3000" /> 
<circle cx="181.0000" cy="121.0000" r="0.3000" /> 
<circle cx="200.5743" cy="121.2743" r="0.3000" /> 
</g>
<g style="fill:none; 
stroke:#4D7FC4; stroke-width:0.2000; stroke-opacity:1; 
stroke-linecap:round; stroke-linejoin:round;">
<path d="M71.0000 80.0000
L71.0000 82.5000
" />
<path d="M201.5000 77.0000
L199.9000 77.0000
" />
<path d="M177.5904 127.5904
L177.5000 127.5000
" />
</g>
<g style="fill:none; 
stroke:#4D7FC4; stroke-width:0.5000; stroke-opacity:1; 
stroke-linecap:round; stroke-linejoin:round;">
<path d="M136.5000 76.0000
L136.7558 76.0000
" />
</g>
<g style="fill:none; 
stroke:#4D7FC4; stroke-width:0.2000; stroke-opacity:1; 
stroke-linecap:round; stroke-linejoin:round;">
<path d="M201.5000 89.2050
L200.9050 89.8000
" />
<path d="M201.0000 95.1000
L201.0000 93.0000
" />
<path d="M227.5000 123.0000
L227.5000 117.5000
" />
<path d="M145.0639 126.7750
L153.9000 126.7750
" />
<path d="M122.2700 112.9300
L131.2189 112.9300
" />
<path d="M201.9000 77.0000
L201.5000 77.0000
" />
<path d="M177.5000 127.5000
L172.5000 127.5000
" />
<path d="M135.4379 117.1490
L145.0639 126.7750
" />
<path d="M199.9000 77.0000
L199.4000 76.5000
" />
<path d="M131.2189 112.9300
L135.4379 117.1490
" />
<path d="M201.5000 77.0000
L201.5000 89.2050
" />
<path d="M202.5000 76.4000
L201.9000 77.0000
" />
</g>
<g style="fill:none; 
stroke:#4D7FC4; stroke-width:0.5000; stroke-opacity:1; 
stroke-linecap:round; stroke-linejoin:round;">
<path d="M136.5000 76.2558
L136.5000 80.5000
" />
</g>
<g style="fill:none; 
stroke:#4D7FC4; stroke-width:0.2000; stroke-opacity:1; 
stroke-linecap:round; stroke-linejoin:round;">
<path d="M228.0000 123.5000
L227.5000 123.0000
" />
</g>
<g style="fill:none; 
stroke:#4D7FC4; stroke-width:1.0000; stroke-opacity:1; 
stroke-linecap:round; stroke-linejoin:round;">
<path d="M172.9142 128.5000
L172.5000 128.5000
" />
<path d="M173.0046 128.5904
L172.9142 128.5000
" />
<path d="M180.8800 125.7150
L178.0046 128.5904
" />
<path d="M180.8800 125.2200
L180.8800 125.7150
" />
<path d="M213.0000 82.5000
L218.0000 82.5000
" />
<path d="M178.0046 128.5904
L173.0046 128.5904
" />
</g>
<g style="fill:none; 
stroke:#4D7FC4; stroke-width:0.2000; stroke-opacity:1; 
stroke-linecap:round; stroke-linejoin:round;">
<path d="M191.8482 90.3482
L192.0000 90.5000
" />
<path d="M191.8482 87.8482
L191.8482 90.3482
" />
<path d="M78.1850 65.0000
L80.5700 67.3850
" />
<path d="M75.0000 65.0000
L78.1850 65.0000
" />
<path d="M83.1100 67.3850
L79.7250 64.0000
" />
<path d="M79.7250 64.0000
L75.0000 64.0000
" />
<path d="M229.0000 121.9657
L229.4343 122.4000
" />
<path d="M229.0000 118.4000
L229.0000 121.9657
" />
<path d="M229.3810 123.1953
L228.2411 122.0553
" />
<path d="M228.2411 122.0553
L228.2411 118.0000
" />
<path d="M229.5214 123.1953
L229.3810 123.1953
" />
<path d="M195.8250 117.5750
L195.8250 115.2000
" />
<path d="M195.5000 117.9000
L195.8250 117.5750
" />
<path d="M215.4736 87.2032
L207.7032 87.2032
" />
<path d="M218.5000 87.2000
L215.4768 87.2000
" />
<path d="M215.4768 87.2000
L215.4736 87.2032
" />
<path d="M207.7032 87.2032
L207.5000 87.0000
" />
<path d="M217.0000 86.5000
L214.0000 86.5000
" />
<path d="M218.5000 88.0000
L215.5450 88.0000
" />
<path d="M200.3000 121.0000
L200.5743 121.2743
" />
<path d="M232.8113 120.8000
L232.7000 120.8000
" />
<path d="M223.7650 86.0208
L224.0000 85.7858
" />
<path d="M223.7650 89.8000
L223.7650 86.0208
" />
<path d="M181.0000 121.0000
L200.3000 121.0000
" />
<path d="M232.8324 120.7789
L232.8113 120.8000
" />
<path d="M122.6117 111.8800
L120.6583 111.8800
" />
<path d="M120.1750 112.5000
L120.0383 112.5000
" />
<path d="M119.7300 112.8083
L119.7300 112.9300
" />
<path d="M134.7536 115.8990
L131.3846 112.5300
" />
<path d="M123.2617 112.5300
L123.0950 112.3633
" />
<path d="M120.1750 112.3633
L120.1750 112.5000
" />
<path d="M120.0383 112.5000
L119.7300 112.8083
" />
<path d="M137.2056 117.1490
L135.9557 115.8990
" />
<path d="M123.0950 112.3633
L122.6117 111.8800
" />
<path d="M135.9557 115.8990
L134.7536 115.8990
" />
<path d="M131.3846 112.5300
L123.2617 112.5300
" />
<path d="M120.6583 111.8800
L120.1750 112.3633
" />
<path d="M137.9779 117.1490
L137.2056 117.1490
" />
</g> 
</svg>
