<?xml version="1.0" standalone="no"?>
 <!DOCTYPE svg PUBLIC "-//W3C//DTD SVG 1.1//EN" 
 "http://www.w3.org/Graphics/SVG/1.1/DTD/svg11.dtd"> 
<svg
  xmlns:svg="http://www.w3.org/2000/svg"
  xmlns="http://www.w3.org/2000/svg"
  xmlns:xlink="http://www.w3.org/1999/xlink"
  xmlns:inkscape="http://www.inkscape.org/namespaces/inkscape"
  version="1.1"
  width="297.0022mm" height="210.0072mm" viewBox="0.0000 0.0000 297.0022 210.0072">
<title>SVG Image created as EV_Guardian_Carrier-F_Silkscreen.svg date 2026-06-20T00:43:51 </title>
  <desc>Image generated by PCBNEW </desc>
<g style="fill:#000000; fill-opacity:1.0000;stroke:#000000; stroke-opacity:1.0000;
stroke-linecap:round; stroke-linejoin:round;"
 transform="translate(0 0) scale(1 1)">
</g>
<g style="fill:none; 
stroke:#F2EDA1; stroke-width:0.1500; stroke-opacity:1; 
stroke-linecap:round; stroke-linejoin:round;">
<text x="68.2000" y="114.2000"
textLength="7.0595" font-size="1.3333" lengthAdjust="spacingAndGlyphs"
text-anchor="middle" opacity="0" stroke-opacity="0">BUZZER1</text>
<g class="stroked-text"><desc>BUZZER1</desc>
<path d="M65.3667 113.6310
L65.5095 113.6786
" />
<path d="M65.5095 113.6786
L65.5571 113.7262
" />
<path d="M65.5571 113.7262
L65.6048 113.8215
" />
<path d="M65.6048 113.8215
L65.6048 113.9643
" />
<path d="M65.6048 113.9643
L65.5571 114.0596
" />
<path d="M65.5571 114.0596
L65.5095 114.1072
" />
<path d="M65.5095 114.1072
L65.4143 114.1548
" />
<path d="M65.4143 114.1548
L65.0333 114.1548
" />
<path d="M65.0333 114.1548
L65.0333 113.1548
" />
<path d="M65.0333 113.1548
L65.3667 113.1548
" />
<path d="M65.3667 113.1548
L65.4619 113.2024
" />
<path d="M65.4619 113.2024
L65.5095 113.2501
" />
<path d="M65.5095 113.2501
L65.5571 113.3453
" />
<path d="M65.5571 113.3453
L65.5571 113.4405
" />
<path d="M65.5571 113.4405
L65.5095 113.5358
" />
<path d="M65.5095 113.5358
L65.4619 113.5834
" />
<path d="M65.4619 113.5834
L65.3667 113.6310
" />
<path d="M65.3667 113.6310
L65.0333 113.6310
" />
<path d="M66.0333 113.1548
L66.0333 113.9643
" />
<path d="M66.0333 113.9643
L66.0810 114.0596
" />
<path d="M66.0810 114.0596
L66.1286 114.1072
" />
<path d="M66.1286 114.1072
L66.2238 114.1548
" />
<path d="M66.2238 114.1548
L66.4143 114.1548
" />
<path d="M66.4143 114.1548
L66.5095 114.1072
" />
<path d="M66.5095 114.1072
L66.5571 114.0596
" />
<path d="M66.5571 114.0596
L66.6048 113.9643
" />
<path d="M66.6048 113.9643
L66.6048 113.1548
" />
<path d="M66.9857 113.1548
L67.6524 113.1548
" />
<path d="M67.6524 113.1548
L66.9857 114.1548
" />
<path d="M66.9857 114.1548
L67.6524 114.1548
" />
<path d="M67.9381 113.1548
L68.6048 113.1548
" />
<path d="M68.6048 113.1548
L67.9381 114.1548
" />
<path d="M67.9381 114.1548
L68.6048 114.1548
" />
<path d="M68.9857 113.6310
L69.3190 113.6310
" />
<path d="M69.4619 114.1548
L68.9857 114.1548
" />
<path d="M68.9857 114.1548
L68.9857 113.1548
" />
<path d="M68.9857 113.1548
L69.4619 113.1548
" />
<path d="M70.4619 114.1548
L70.1286 113.6786
" />
<path d="M69.8905 114.1548
L69.8905 113.1548
" />
<path d="M69.8905 113.1548
L70.2714 113.1548
" />
<path d="M70.2714 113.1548
L70.3667 113.2024
" />
<path d="M70.3667 113.2024
L70.4143 113.2501
" />
<path d="M70.4143 113.2501
L70.4619 113.3453
" />
<path d="M70.4619 113.3453
L70.4619 113.4882
" />
<path d="M70.4619 113.4882
L70.4143 113.5834
" />
<path d="M70.4143 113.5834
L70.3667 113.6310
" />
<path d="M70.3667 113.6310
L70.2714 113.6786
" />
<path d="M70.2714 113.6786
L69.8905 113.6786
" />
<path d="M71.4143 114.1548
L70.8429 114.1548
" />
<path d="M71.1286 114.1548
L71.1286 113.1548
" />
<path d="M71.1286 113.1548
L71.0333 113.2977
" />
<path d="M71.0333 113.2977
L70.9381 113.3929
" />
<path d="M70.9381 113.3929
L70.8429 113.4405
" />
</g><text x="72.0100" y="109.5400"
textLength="1.4881" font-size="1.3333" lengthAdjust="spacingAndGlyphs"
text-anchor="middle" opacity="0" stroke-opacity="0">+</text>
<g class="stroked-text"><desc>+</desc>
<path d="M71.6290 109.1139
L72.3910 109.1139
" />
<path d="M72.0100 109.4948
L72.0100 108.7329
" />
</g><text x="121.2300" y="98.4600"
textLength="3.9167" font-size="1.3333" lengthAdjust="spacingAndGlyphs"
text-anchor="middle" opacity="0" stroke-opacity="0">LED1</text>
<g class="stroked-text"><desc>LED1</desc>
<path d="M120.1110 98.4148
L119.6348 98.4148
" />
<path d="M119.6348 98.4148
L119.6348 97.4148
" />
<path d="M120.4443 97.8910
L120.7776 97.8910
" />
<path d="M120.9205 98.4148
L120.4443 98.4148
" />
<path d="M120.4443 98.4148
L120.4443 97.4148
" />
<path d="M120.4443 97.4148
L120.9205 97.4148
" />
<path d="M121.3490 98.4148
L121.3490 97.4148
" />
<path d="M121.3490 97.4148
L121.5871 97.4148
" />
<path d="M121.5871 97.4148
L121.7300 97.4624
" />
<path d="M121.7300 97.4624
L121.8252 97.5577
" />
<path d="M121.8252 97.5577
L121.8729 97.6529
" />
<path d="M121.8729 97.6529
L121.9205 97.8434
" />
<path d="M121.9205 97.8434
L121.9205 97.9862
" />
<path d="M121.9205 97.9862
L121.8729 98.1767
" />
<path d="M121.8729 98.1767
L121.8252 98.2720
" />
<path d="M121.8252 98.2720
L121.7300 98.3672
" />
<path d="M121.7300 98.3672
L121.5871 98.4148
" />
<path d="M121.5871 98.4148
L121.3490 98.4148
" />
<path d="M122.8729 98.4148
L122.3014 98.4148
" />
<path d="M122.5871 98.4148
L122.5871 97.4148
" />
<path d="M122.5871 97.4148
L122.4919 97.5577
" />
<path d="M122.4919 97.5577
L122.3967 97.6529
" />
<path d="M122.3967 97.6529
L122.3014 97.7005
" />
</g><text x="121.0000" y="99.5400"
textLength="3.9167" font-size="1.3333" lengthAdjust="spacingAndGlyphs"
text-anchor="middle" opacity="0" stroke-opacity="0">LED2</text>
<g class="stroked-text"><desc>LED2</desc>
<path d="M119.8810 99.4948
L119.4048 99.4948
" />
<path d="M119.4048 99.4948
L119.4048 98.4948
" />
<path d="M120.2143 98.9710
L120.5476 98.9710
" />
<path d="M120.6905 99.4948
L120.2143 99.4948
" />
<path d="M120.2143 99.4948
L120.2143 98.4948
" />
<path d="M120.2143 98.4948
L120.6905 98.4948
" />
<path d="M121.1190 99.4948
L121.1190 98.4948
" />
<path d="M121.1190 98.4948
L121.3571 98.4948
" />
<path d="M121.3571 98.4948
L121.5000 98.5424
" />
<path d="M121.5000 98.5424
L121.5952 98.6377
" />
<path d="M121.5952 98.6377
L121.6429 98.7329
" />
<path d="M121.6429 98.7329
L121.6905 98.9234
" />
<path d="M121.6905 98.9234
L121.6905 99.0662
" />
<path d="M121.6905 99.0662
L121.6429 99.2567
" />
<path d="M121.6429 99.2567
L121.5952 99.3520
" />
<path d="M121.5952 99.3520
L121.5000 99.4472
" />
<path d="M121.5000 99.4472
L121.3571 99.4948
" />
<path d="M121.3571 99.4948
L121.1190 99.4948
" />
<path d="M122.0714 98.5901
L122.1190 98.5424
" />
<path d="M122.1190 98.5424
L122.2143 98.4948
" />
<path d="M122.2143 98.4948
L122.4524 98.4948
" />
<path d="M122.4524 98.4948
L122.5476 98.5424
" />
<path d="M122.5476 98.5424
L122.5952 98.5901
" />
<path d="M122.5952 98.5901
L122.6429 98.6853
" />
<path d="M122.6429 98.6853
L122.6429 98.7805
" />
<path d="M122.6429 98.7805
L122.5952 98.9234
" />
<path d="M122.5952 98.9234
L122.0238 99.4948
" />
<path d="M122.0238 99.4948
L122.6429 99.4948
" />
</g><text x="63.7600" y="74.3250"
textLength="2.2024" font-size="1.3333" lengthAdjust="spacingAndGlyphs"
text-anchor="middle" opacity="0" stroke-opacity="0">R7</text>
<g class="stroked-text"><desc>R7</desc>
<path d="M63.5933 74.2798
L63.2600 73.8036
" />
<path d="M63.0219 74.2798
L63.0219 73.2798
" />
<path d="M63.0219 73.2798
L63.4029 73.2798
" />
<path d="M63.4029 73.2798
L63.4981 73.3274
" />
<path d="M63.4981 73.3274
L63.5457 73.3751
" />
<path d="M63.5457 73.3751
L63.5933 73.4703
" />
<path d="M63.5933 73.4703
L63.5933 73.6132
" />
<path d="M63.5933 73.6132
L63.5457 73.7084
" />
<path d="M63.5457 73.7084
L63.4981 73.7560
" />
<path d="M63.4981 73.7560
L63.4029 73.8036
" />
<path d="M63.4029 73.8036
L63.0219 73.8036
" />
<path d="M63.9267 73.2798
L64.5933 73.2798
" />
<path d="M64.5933 73.2798
L64.1648 74.2798
" />
</g></g>
<g style="fill:none; 
stroke:#F2EDA1; stroke-width:0.0500; stroke-opacity:1; 
stroke-linecap:round; stroke-linejoin:round;">
<g transform="rotate(-90.000000 156.8150 77.3500)">
<text x="156.8150" y="77.8500"
textLength="2.9024" font-size="1.3333" lengthAdjust="spacingAndGlyphs"
text-anchor="middle" opacity="0" stroke-opacity="0">U10</text>
</g>
<g class="stroked-text"><desc>U10</desc>
<path d="M156.2750 78.5881
L157.0845 78.5881
" />
<path d="M157.0845 78.5881
L157.1798 78.5405
" />
<path d="M157.1798 78.5405
L157.2274 78.4929
" />
<path d="M157.2274 78.4929
L157.2750 78.3976
" />
<path d="M157.2750 78.3976
L157.2750 78.2071
" />
<path d="M157.2750 78.2071
L157.2274 78.1119
" />
<path d="M157.2274 78.1119
L157.1798 78.0643
" />
<path d="M157.1798 78.0643
L157.0845 78.0167
" />
<path d="M157.0845 78.0167
L156.2750 78.0167
" />
<path d="M157.2750 77.0167
L157.2750 77.5881
" />
<path d="M157.2750 77.3024
L156.2750 77.3024
" />
<path d="M156.2750 77.3024
L156.4179 77.3976
" />
<path d="M156.4179 77.3976
L156.5131 77.4929
" />
<path d="M156.5131 77.4929
L156.5607 77.5881
" />
<path d="M156.2750 76.3976
L156.2750 76.3024
" />
<path d="M156.2750 76.3024
L156.3226 76.2071
" />
<path d="M156.3226 76.2071
L156.3703 76.1595
" />
<path d="M156.3703 76.1595
L156.4655 76.1119
" />
<path d="M156.4655 76.1119
L156.6560 76.0643
" />
<path d="M156.6560 76.0643
L156.8941 76.0643
" />
<path d="M156.8941 76.0643
L157.0845 76.1119
" />
<path d="M157.0845 76.1119
L157.1798 76.1595
" />
<path d="M157.1798 76.1595
L157.2274 76.2071
" />
<path d="M157.2274 76.2071
L157.2750 76.3024
" />
<path d="M157.2750 76.3024
L157.2750 76.3976
" />
<path d="M157.2750 76.3976
L157.2274 76.4929
" />
<path d="M157.2274 76.4929
L157.1798 76.5405
" />
<path d="M157.1798 76.5405
L157.0845 76.5881
" />
<path d="M157.0845 76.5881
L156.8941 76.6357
" />
<path d="M156.8941 76.6357
L156.6560 76.6357
" />
<path d="M156.6560 76.6357
L156.4655 76.5881
" />
<path d="M156.4655 76.5881
L156.3703 76.5405
" />
<path d="M156.3703 76.5405
L156.3226 76.4929
" />
<path d="M156.3226 76.4929
L156.2750 76.3976
" />
</g><g transform="rotate(-90.000000 196.1850 76.7150)">
<text x="196.1850" y="77.2150"
textLength="6.2833" font-size="1.3333" lengthAdjust="spacingAndGlyphs"
text-anchor="middle" opacity="0" stroke-opacity="0">NEO-6M</text>
</g>
<g class="stroked-text"><desc>NEO-6M</desc>
<path d="M196.6450 79.6436
L195.6450 79.6436
" />
<path d="M195.6450 79.6436
L196.6450 79.0721
" />
<path d="M196.6450 79.0721
L195.6450 79.0721
" />
<path d="M196.1212 78.5960
L196.1212 78.2626
" />
<path d="M196.6450 78.1198
L196.6450 78.5960
" />
<path d="M196.6450 78.5960
L195.6450 78.5960
" />
<path d="M195.6450 78.5960
L195.6450 78.1198
" />
<path d="M195.6450 77.5007
L195.6450 77.3102
" />
<path d="M195.6450 77.3102
L195.6926 77.2150
" />
<path d="M195.6926 77.2150
L195.7879 77.1198
" />
<path d="M195.7879 77.1198
L195.9784 77.0721
" />
<path d="M195.9784 77.0721
L196.3117 77.0721
" />
<path d="M196.3117 77.0721
L196.5022 77.1198
" />
<path d="M196.5022 77.1198
L196.5974 77.2150
" />
<path d="M196.5974 77.2150
L196.6450 77.3102
" />
<path d="M196.6450 77.3102
L196.6450 77.5007
" />
<path d="M196.6450 77.5007
L196.5974 77.5960
" />
<path d="M196.5974 77.5960
L196.5022 77.6912
" />
<path d="M196.5022 77.6912
L196.3117 77.7388
" />
<path d="M196.3117 77.7388
L195.9784 77.7388
" />
<path d="M195.9784 77.7388
L195.7879 77.6912
" />
<path d="M195.7879 77.6912
L195.6926 77.5960
" />
<path d="M195.6926 77.5960
L195.6450 77.5007
" />
<path d="M196.2641 76.6436
L196.2641 75.8817
" />
<path d="M195.6450 74.9769
L195.6450 75.1674
" />
<path d="M195.6450 75.1674
L195.6926 75.2626
" />
<path d="M195.6926 75.2626
L195.7403 75.3102
" />
<path d="M195.7403 75.3102
L195.8831 75.4055
" />
<path d="M195.8831 75.4055
L196.0736 75.4531
" />
<path d="M196.0736 75.4531
L196.4545 75.4531
" />
<path d="M196.4545 75.4531
L196.5498 75.4055
" />
<path d="M196.5498 75.4055
L196.5974 75.3579
" />
<path d="M196.5974 75.3579
L196.6450 75.2626
" />
<path d="M196.6450 75.2626
L196.6450 75.0721
" />
<path d="M196.6450 75.0721
L196.5974 74.9769
" />
<path d="M196.5974 74.9769
L196.5498 74.9293
" />
<path d="M196.5498 74.9293
L196.4545 74.8817
" />
<path d="M196.4545 74.8817
L196.2164 74.8817
" />
<path d="M196.2164 74.8817
L196.1212 74.9293
" />
<path d="M196.1212 74.9293
L196.0736 74.9769
" />
<path d="M196.0736 74.9769
L196.0260 75.0721
" />
<path d="M196.0260 75.0721
L196.0260 75.2626
" />
<path d="M196.0260 75.2626
L196.0736 75.3579
" />
<path d="M196.0736 75.3579
L196.1212 75.4055
" />
<path d="M196.1212 75.4055
L196.2164 75.4531
" />
<path d="M196.6450 74.4531
L195.6450 74.4531
" />
<path d="M195.6450 74.4531
L196.3593 74.1198
" />
<path d="M196.3593 74.1198
L195.6450 73.7864
" />
<path d="M195.6450 73.7864
L196.6450 73.7864
" />
</g><g transform="rotate(-90.000000 231.0350 127.9400)">
<text x="231.0350" y="128.4400"
textLength="1.9500" font-size="1.3333" lengthAdjust="spacingAndGlyphs"
text-anchor="middle" opacity="0" stroke-opacity="0">U9</text>
</g>
<g class="stroked-text"><desc>U9</desc>
<path d="M230.4950 128.7019
L231.3045 128.7019
" />
<path d="M231.3045 128.7019
L231.3998 128.6543
" />
<path d="M231.3998 128.6543
L231.4474 128.6067
" />
<path d="M231.4474 128.6067
L231.4950 128.5114
" />
<path d="M231.4950 128.5114
L231.4950 128.3210
" />
<path d="M231.4950 128.3210
L231.4474 128.2257
" />
<path d="M231.4474 128.2257
L231.3998 128.1781
" />
<path d="M231.3998 128.1781
L231.3045 128.1305
" />
<path d="M231.3045 128.1305
L230.4950 128.1305
" />
<path d="M231.4950 127.6067
L231.4950 127.4162
" />
<path d="M231.4950 127.4162
L231.4474 127.3210
" />
<path d="M231.4474 127.3210
L231.3998 127.2733
" />
<path d="M231.3998 127.2733
L231.2569 127.1781
" />
<path d="M231.2569 127.1781
L231.0664 127.1305
" />
<path d="M231.0664 127.1305
L230.6855 127.1305
" />
<path d="M230.6855 127.1305
L230.5903 127.1781
" />
<path d="M230.5903 127.1781
L230.5426 127.2257
" />
<path d="M230.5426 127.2257
L230.4950 127.3210
" />
<path d="M230.4950 127.3210
L230.4950 127.5114
" />
<path d="M230.4950 127.5114
L230.5426 127.6067
" />
<path d="M230.5426 127.6067
L230.5903 127.6543
" />
<path d="M230.5903 127.6543
L230.6855 127.7019
" />
<path d="M230.6855 127.7019
L230.9236 127.7019
" />
<path d="M230.9236 127.7019
L231.0188 127.6543
" />
<path d="M231.0188 127.6543
L231.0664 127.6067
" />
<path d="M231.0664 127.6067
L231.1141 127.5114
" />
<path d="M231.1141 127.5114
L231.1141 127.3210
" />
<path d="M231.1141 127.3210
L231.0664 127.2257
" />
<path d="M231.0664 127.2257
L231.0188 127.1781
" />
<path d="M231.0188 127.1781
L230.9236 127.1305
" />
</g><g transform="rotate(-90.000000 206.9650 128.5750)">
<text x="206.9650" y="129.0750"
textLength="9.9976" font-size="1.3333" lengthAdjust="spacingAndGlyphs"
text-anchor="middle" opacity="0" stroke-opacity="0">MPU6050-TH</text>
</g>
<g class="stroked-text"><desc>MPU6050-TH</desc>
<path d="M207.4250 133.3607
L206.4250 133.3607
" />
<path d="M206.4250 133.3607
L207.1393 133.0274
" />
<path d="M207.1393 133.0274
L206.4250 132.6940
" />
<path d="M206.4250 132.6940
L207.4250 132.6940
" />
<path d="M207.4250 132.2179
L206.4250 132.2179
" />
<path d="M206.4250 132.2179
L206.4250 131.8369
" />
<path d="M206.4250 131.8369
L206.4726 131.7417
" />
<path d="M206.4726 131.7417
L206.5203 131.6940
" />
<path d="M206.5203 131.6940
L206.6155 131.6464
" />
<path d="M206.6155 131.6464
L206.7584 131.6464
" />
<path d="M206.7584 131.6464
L206.8536 131.6940
" />
<path d="M206.8536 131.6940
L206.9012 131.7417
" />
<path d="M206.9012 131.7417
L206.9488 131.8369
" />
<path d="M206.9488 131.8369
L206.9488 132.2179
" />
<path d="M206.4250 131.2179
L207.2345 131.2179
" />
<path d="M207.2345 131.2179
L207.3298 131.1702
" />
<path d="M207.3298 131.1702
L207.3774 131.1226
" />
<path d="M207.3774 131.1226
L207.4250 131.0274
" />
<path d="M207.4250 131.0274
L207.4250 130.8369
" />
<path d="M207.4250 130.8369
L207.3774 130.7417
" />
<path d="M207.3774 130.7417
L207.3298 130.6940
" />
<path d="M207.3298 130.6940
L207.2345 130.6464
" />
<path d="M207.2345 130.6464
L206.4250 130.6464
" />
<path d="M206.4250 129.7417
L206.4250 129.9321
" />
<path d="M206.4250 129.9321
L206.4726 130.0274
" />
<path d="M206.4726 130.0274
L206.5203 130.0750
" />
<path d="M206.5203 130.0750
L206.6631 130.1702
" />
<path d="M206.6631 130.1702
L206.8536 130.2179
" />
<path d="M206.8536 130.2179
L207.2345 130.2179
" />
<path d="M207.2345 130.2179
L207.3298 130.1702
" />
<path d="M207.3298 130.1702
L207.3774 130.1226
" />
<path d="M207.3774 130.1226
L207.4250 130.0274
" />
<path d="M207.4250 130.0274
L207.4250 129.8369
" />
<path d="M207.4250 129.8369
L207.3774 129.7417
" />
<path d="M207.3774 129.7417
L207.3298 129.6940
" />
<path d="M207.3298 129.6940
L207.2345 129.6464
" />
<path d="M207.2345 129.6464
L206.9964 129.6464
" />
<path d="M206.9964 129.6464
L206.9012 129.6940
" />
<path d="M206.9012 129.6940
L206.8536 129.7417
" />
<path d="M206.8536 129.7417
L206.8060 129.8369
" />
<path d="M206.8060 129.8369
L206.8060 130.0274
" />
<path d="M206.8060 130.0274
L206.8536 130.1226
" />
<path d="M206.8536 130.1226
L206.9012 130.1702
" />
<path d="M206.9012 130.1702
L206.9964 130.2179
" />
<path d="M206.4250 129.0274
L206.4250 128.9321
" />
<path d="M206.4250 128.9321
L206.4726 128.8369
" />
<path d="M206.4726 128.8369
L206.5203 128.7893
" />
<path d="M206.5203 128.7893
L206.6155 128.7417
" />
<path d="M206.6155 128.7417
L206.8060 128.6940
" />
<path d="M206.8060 128.6940
L207.0441 128.6940
" />
<path d="M207.0441 128.6940
L207.2345 128.7417
" />
<path d="M207.2345 128.7417
L207.3298 128.7893
" />
<path d="M207.3298 128.7893
L207.3774 128.8369
" />
<path d="M207.3774 128.8369
L207.4250 128.9321
" />
<path d="M207.4250 128.9321
L207.4250 129.0274
" />
<path d="M207.4250 129.0274
L207.3774 129.1226
" />
<path d="M207.3774 129.1226
L207.3298 129.1702
" />
<path d="M207.3298 129.1702
L207.2345 129.2179
" />
<path d="M207.2345 129.2179
L207.0441 129.2655
" />
<path d="M207.0441 129.2655
L206.8060 129.2655
" />
<path d="M206.8060 129.2655
L206.6155 129.2179
" />
<path d="M206.6155 129.2179
L206.5203 129.1702
" />
<path d="M206.5203 129.1702
L206.4726 129.1226
" />
<path d="M206.4726 129.1226
L206.4250 129.0274
" />
<path d="M206.4250 127.7893
L206.4250 128.2655
" />
<path d="M206.4250 128.2655
L206.9012 128.3131
" />
<path d="M206.9012 128.3131
L206.8536 128.2655
" />
<path d="M206.8536 128.2655
L206.8060 128.1702
" />
<path d="M206.8060 128.1702
L206.8060 127.9321
" />
<path d="M206.8060 127.9321
L206.8536 127.8369
" />
<path d="M206.8536 127.8369
L206.9012 127.7893
" />
<path d="M206.9012 127.7893
L206.9964 127.7417
" />
<path d="M206.9964 127.7417
L207.2345 127.7417
" />
<path d="M207.2345 127.7417
L207.3298 127.7893
" />
<path d="M207.3298 127.7893
L207.3774 127.8369
" />
<path d="M207.3774 127.8369
L207.4250 127.9321
" />
<path d="M207.4250 127.9321
L207.4250 128.1702
" />
<path d="M207.4250 128.1702
L207.3774 128.2655
" />
<path d="M207.3774 128.2655
L207.3298 128.3131
" />
<path d="M206.4250 127.1226
L206.4250 127.0274
" />
<path d="M206.4250 127.0274
L206.4726 126.9321
" />
<path d="M206.4726 126.9321
L206.5203 126.8845
" />
<path d="M206.5203 126.8845
L206.6155 126.8369
" />
<path d="M206.6155 126.8369
L206.8060 126.7893
" />
<path d="M206.8060 126.7893
L207.0441 126.7893
" />
<path d="M207.0441 126.7893
L207.2345 126.8369
" />
<path d="M207.2345 126.8369
L207.3298 126.8845
" />
<path d="M207.3298 126.8845
L207.3774 126.9321
" />
<path d="M207.3774 126.9321
L207.4250 127.0274
" />
<path d="M207.4250 127.0274
L207.4250 127.1226
" />
<path d="M207.4250 127.1226
L207.3774 127.2179
" />
<path d="M207.3774 127.2179
L207.3298 127.2655
" />
<path d="M207.3298 127.2655
L207.2345 127.3131
" />
<path d="M207.2345 127.3131
L207.0441 127.3607
" />
<path d="M207.0441 127.3607
L206.8060 127.3607
" />
<path d="M206.8060 127.3607
L206.6155 127.3131
" />
<path d="M206.6155 127.3131
L206.5203 127.2655
" />
<path d="M206.5203 127.2655
L206.4726 127.2179
" />
<path d="M206.4726 127.2179
L206.4250 127.1226
" />
<path d="M207.0441 126.3607
L207.0441 125.5988
" />
<path d="M206.4250 125.2655
L206.4250 124.6940
" />
<path d="M207.4250 124.9798
L206.4250 124.9798
" />
<path d="M207.4250 124.3607
L206.4250 124.3607
" />
<path d="M206.9012 124.3607
L206.9012 123.7893
" />
<path d="M207.4250 123.7893
L206.4250 123.7893
" />
</g></g>
<g style="fill:none; 
stroke:#F2EDA1; stroke-width:0.1500; stroke-opacity:1; 
stroke-linecap:round; stroke-linejoin:round;">
<text x="105.5000" y="112.8700"
textLength="2.2024" font-size="1.3333" lengthAdjust="spacingAndGlyphs"
text-anchor="middle" opacity="0" stroke-opacity="0">R4</text>
<g class="stroked-text"><desc>R4</desc>
<path d="M105.3333 112.8248
L105.0000 112.3486
" />
<path d="M104.7619 112.8248
L104.7619 111.8248
" />
<path d="M104.7619 111.8248
L105.1429 111.8248
" />
<path d="M105.1429 111.8248
L105.2381 111.8724
" />
<path d="M105.2381 111.8724
L105.2857 111.9201
" />
<path d="M105.2857 111.9201
L105.3333 112.0153
" />
<path d="M105.3333 112.0153
L105.3333 112.1582
" />
<path d="M105.3333 112.1582
L105.2857 112.2534
" />
<path d="M105.2857 112.2534
L105.2381 112.3010
" />
<path d="M105.2381 112.3010
L105.1429 112.3486
" />
<path d="M105.1429 112.3486
L104.7619 112.3486
" />
<path d="M106.1905 112.1582
L106.1905 112.8248
" />
<path d="M105.9524 111.7772
L105.7143 112.4915
" />
<path d="M105.7143 112.4915
L106.3333 112.4915
" />
</g><text x="105.8800" y="91.6300"
textLength="2.2024" font-size="1.3333" lengthAdjust="spacingAndGlyphs"
text-anchor="middle" opacity="0" stroke-opacity="0">R3</text>
<g class="stroked-text"><desc>R3</desc>
<path d="M105.7133 91.5848
L105.3800 91.1086
" />
<path d="M105.1419 91.5848
L105.1419 90.5848
" />
<path d="M105.1419 90.5848
L105.5229 90.5848
" />
<path d="M105.5229 90.5848
L105.6181 90.6324
" />
<path d="M105.6181 90.6324
L105.6657 90.6801
" />
<path d="M105.6657 90.6801
L105.7133 90.7753
" />
<path d="M105.7133 90.7753
L105.7133 90.9182
" />
<path d="M105.7133 90.9182
L105.6657 91.0134
" />
<path d="M105.6657 91.0134
L105.6181 91.0610
" />
<path d="M105.6181 91.0610
L105.5229 91.1086
" />
<path d="M105.5229 91.1086
L105.1419 91.1086
" />
<path d="M106.0467 90.5848
L106.6657 90.5848
" />
<path d="M106.6657 90.5848
L106.3324 90.9658
" />
<path d="M106.3324 90.9658
L106.4752 90.9658
" />
<path d="M106.4752 90.9658
L106.5705 91.0134
" />
<path d="M106.5705 91.0134
L106.6181 91.0610
" />
<path d="M106.6181 91.0610
L106.6657 91.1562
" />
<path d="M106.6657 91.1562
L106.6657 91.3943
" />
<path d="M106.6657 91.3943
L106.6181 91.4896
" />
<path d="M106.6181 91.4896
L106.5705 91.5372
" />
<path d="M106.5705 91.5372
L106.4752 91.5848
" />
<path d="M106.4752 91.5848
L106.1895 91.5848
" />
<path d="M106.1895 91.5848
L106.0943 91.5372
" />
<path d="M106.0943 91.5372
L106.0467 91.4896
" />
</g><g transform="rotate(-90.000000 70.6800 63.0000)">
<text x="70.6800" y="63.5000"
textLength="3.2024" font-size="1.3333" lengthAdjust="spacingAndGlyphs"
text-anchor="middle" opacity="0" stroke-opacity="0">U11</text>
</g>
<g class="stroked-text"><desc>U11</desc>
<path d="M70.1348 64.2381
L70.9443 64.2381
" />
<path d="M70.9443 64.2381
L71.0396 64.1905
" />
<path d="M71.0396 64.1905
L71.0872 64.1429
" />
<path d="M71.0872 64.1429
L71.1348 64.0476
" />
<path d="M71.1348 64.0476
L71.1348 63.8571
" />
<path d="M71.1348 63.8571
L71.0872 63.7619
" />
<path d="M71.0872 63.7619
L71.0396 63.7143
" />
<path d="M71.0396 63.7143
L70.9443 63.6667
" />
<path d="M70.9443 63.6667
L70.1348 63.6667
" />
<path d="M71.1348 62.6667
L71.1348 63.2381
" />
<path d="M71.1348 62.9524
L70.1348 62.9524
" />
<path d="M70.1348 62.9524
L70.2777 63.0476
" />
<path d="M70.2777 63.0476
L70.3729 63.1429
" />
<path d="M70.3729 63.1429
L70.4205 63.2381
" />
<path d="M71.1348 61.7143
L71.1348 62.2857
" />
<path d="M71.1348 62.0000
L70.1348 62.0000
" />
<path d="M70.1348 62.0000
L70.2777 62.0952
" />
<path d="M70.2777 62.0952
L70.3729 62.1905
" />
<path d="M70.3729 62.1905
L70.4205 62.2857
" />
</g><text x="63.7600" y="79.3250"
textLength="2.2024" font-size="1.3333" lengthAdjust="spacingAndGlyphs"
text-anchor="middle" opacity="0" stroke-opacity="0">R6</text>
<g class="stroked-text"><desc>R6</desc>
<path d="M63.5933 79.2798
L63.2600 78.8036
" />
<path d="M63.0219 79.2798
L63.0219 78.2798
" />
<path d="M63.0219 78.2798
L63.4029 78.2798
" />
<path d="M63.4029 78.2798
L63.4981 78.3274
" />
<path d="M63.4981 78.3274
L63.5457 78.3751
" />
<path d="M63.5457 78.3751
L63.5933 78.4703
" />
<path d="M63.5933 78.4703
L63.5933 78.6132
" />
<path d="M63.5933 78.6132
L63.5457 78.7084
" />
<path d="M63.5457 78.7084
L63.4981 78.7560
" />
<path d="M63.4981 78.7560
L63.4029 78.8036
" />
<path d="M63.4029 78.8036
L63.0219 78.8036
" />
<path d="M64.4505 78.2798
L64.2600 78.2798
" />
<path d="M64.2600 78.2798
L64.1648 78.3274
" />
<path d="M64.1648 78.3274
L64.1171 78.3751
" />
<path d="M64.1171 78.3751
L64.0219 78.5179
" />
<path d="M64.0219 78.5179
L63.9743 78.7084
" />
<path d="M63.9743 78.7084
L63.9743 79.0893
" />
<path d="M63.9743 79.0893
L64.0219 79.1846
" />
<path d="M64.0219 79.1846
L64.0695 79.2322
" />
<path d="M64.0695 79.2322
L64.1648 79.2798
" />
<path d="M64.1648 79.2798
L64.3552 79.2798
" />
<path d="M64.3552 79.2798
L64.4505 79.2322
" />
<path d="M64.4505 79.2322
L64.4981 79.1846
" />
<path d="M64.4981 79.1846
L64.5457 79.0893
" />
<path d="M64.5457 79.0893
L64.5457 78.8512
" />
<path d="M64.5457 78.8512
L64.4981 78.7560
" />
<path d="M64.4981 78.7560
L64.4505 78.7084
" />
<path d="M64.4505 78.7084
L64.3552 78.6608
" />
<path d="M64.3552 78.6608
L64.1648 78.6608
" />
<path d="M64.1648 78.6608
L64.0695 78.7084
" />
<path d="M64.0695 78.7084
L64.0219 78.7560
" />
<path d="M64.0219 78.7560
L63.9743 78.8512
" />
</g><g transform="rotate(-90.000000 95.9000 82.2500)">
<text x="95.9000" y="82.7500"
textLength="2.0595" font-size="1.3333" lengthAdjust="spacingAndGlyphs"
text-anchor="middle" opacity="0" stroke-opacity="0">F1</text>
</g>
<g class="stroked-text"><desc>F1</desc>
<path d="M95.8310 82.5833
L95.8310 82.9167
" />
<path d="M96.3548 82.9167
L95.3548 82.9167
" />
<path d="M95.3548 82.9167
L95.3548 82.4405
" />
<path d="M96.3548 81.5357
L96.3548 82.1071
" />
<path d="M96.3548 81.8214
L95.3548 81.8214
" />
<path d="M95.3548 81.8214
L95.4977 81.9167
" />
<path d="M95.4977 81.9167
L95.5929 82.0119
" />
<path d="M95.5929 82.0119
L95.6405 82.1071
" />
</g><text x="105.3800" y="101.1300"
textLength="2.2024" font-size="1.3333" lengthAdjust="spacingAndGlyphs"
text-anchor="middle" opacity="0" stroke-opacity="0">R5</text>
<g class="stroked-text"><desc>R5</desc>
<path d="M105.2133 101.0848
L104.8800 100.6086
" />
<path d="M104.6419 101.0848
L104.6419 100.0848
" />
<path d="M104.6419 100.0848
L105.0229 100.0848
" />
<path d="M105.0229 100.0848
L105.1181 100.1324
" />
<path d="M105.1181 100.1324
L105.1657 100.1801
" />
<path d="M105.1657 100.1801
L105.2133 100.2753
" />
<path d="M105.2133 100.2753
L105.2133 100.4182
" />
<path d="M105.2133 100.4182
L105.1657 100.5134
" />
<path d="M105.1657 100.5134
L105.1181 100.5610
" />
<path d="M105.1181 100.5610
L105.0229 100.6086
" />
<path d="M105.0229 100.6086
L104.6419 100.6086
" />
<path d="M106.1181 100.0848
L105.6419 100.0848
" />
<path d="M105.6419 100.0848
L105.5943 100.5610
" />
<path d="M105.5943 100.5610
L105.6419 100.5134
" />
<path d="M105.6419 100.5134
L105.7371 100.4658
" />
<path d="M105.7371 100.4658
L105.9752 100.4658
" />
<path d="M105.9752 100.4658
L106.0705 100.5134
" />
<path d="M106.0705 100.5134
L106.1181 100.5610
" />
<path d="M106.1181 100.5610
L106.1657 100.6562
" />
<path d="M106.1657 100.6562
L106.1657 100.8943
" />
<path d="M106.1657 100.8943
L106.1181 100.9896
" />
<path d="M106.1181 100.9896
L106.0705 101.0372
" />
<path d="M106.0705 101.0372
L105.9752 101.0848
" />
<path d="M105.9752 101.0848
L105.7371 101.0848
" />
<path d="M105.7371 101.0848
L105.6419 101.0372
" />
<path d="M105.6419 101.0372
L105.5943 100.9896
" />
</g><text x="109.0000" y="76.3152"
textLength="1.9643" font-size="1.3333" lengthAdjust="spacingAndGlyphs"
text-anchor="middle" opacity="0" stroke-opacity="0">J1</text>
<g class="stroked-text"><desc>J1</desc>
<path d="M108.6667 75.2700
L108.6667 75.9843
" />
<path d="M108.6667 75.9843
L108.6190 76.1272
" />
<path d="M108.6190 76.1272
L108.5238 76.2224
" />
<path d="M108.5238 76.2224
L108.3810 76.2700
" />
<path d="M108.3810 76.2700
L108.2857 76.2700
" />
<path d="M109.6667 76.2700
L109.0952 76.2700
" />
<path d="M109.3810 76.2700
L109.3810 75.2700
" />
<path d="M109.3810 75.2700
L109.2857 75.4129
" />
<path d="M109.2857 75.4129
L109.1905 75.5081
" />
<path d="M109.1905 75.5081
L109.0952 75.5557
" />
</g><g transform="rotate(-90.000000 99.2464 68.8048)">
<text x="99.2464" y="69.3048"
textLength="6.6310" font-size="1.3333" lengthAdjust="spacingAndGlyphs"
text-anchor="middle" opacity="0" stroke-opacity="0">4.5-28V</text>
</g>
<g class="stroked-text"><desc>4.5-28V</desc>
<path d="M99.0346 71.3286
L99.7012 71.3286
" />
<path d="M98.6536 71.5667
L99.3679 71.8048
" />
<path d="M99.3679 71.8048
L99.3679 71.1858
" />
<path d="M99.6060 70.8048
L99.6536 70.7572
" />
<path d="M99.6536 70.7572
L99.7012 70.8048
" />
<path d="M99.7012 70.8048
L99.6536 70.8524
" />
<path d="M99.6536 70.8524
L99.6060 70.8048
" />
<path d="M99.6060 70.8048
L99.7012 70.8048
" />
<path d="M98.7012 69.8524
L98.7012 70.3286
" />
<path d="M98.7012 70.3286
L99.1774 70.3762
" />
<path d="M99.1774 70.3762
L99.1298 70.3286
" />
<path d="M99.1298 70.3286
L99.0822 70.2334
" />
<path d="M99.0822 70.2334
L99.0822 69.9953
" />
<path d="M99.0822 69.9953
L99.1298 69.9000
" />
<path d="M99.1298 69.9000
L99.1774 69.8524
" />
<path d="M99.1774 69.8524
L99.2726 69.8048
" />
<path d="M99.2726 69.8048
L99.5107 69.8048
" />
<path d="M99.5107 69.8048
L99.6060 69.8524
" />
<path d="M99.6060 69.8524
L99.6536 69.9000
" />
<path d="M99.6536 69.9000
L99.7012 69.9953
" />
<path d="M99.7012 69.9953
L99.7012 70.2334
" />
<path d="M99.7012 70.2334
L99.6536 70.3286
" />
<path d="M99.6536 70.3286
L99.6060 70.3762
" />
<path d="M99.3203 69.3762
L99.3203 68.6143
" />
<path d="M98.7965 68.1858
L98.7488 68.1381
" />
<path d="M98.7488 68.1381
L98.7012 68.0429
" />
<path d="M98.7012 68.0429
L98.7012 67.8048
" />
<path d="M98.7012 67.8048
L98.7488 67.7096
" />
<path d="M98.7488 67.7096
L98.7965 67.6619
" />
<path d="M98.7965 67.6619
L98.8917 67.6143
" />
<path d="M98.8917 67.6143
L98.9869 67.6143
" />
<path d="M98.9869 67.6143
L99.1298 67.6619
" />
<path d="M99.1298 67.6619
L99.7012 68.2334
" />
<path d="M99.7012 68.2334
L99.7012 67.6143
" />
<path d="M99.1298 67.0429
L99.0822 67.1381
" />
<path d="M99.0822 67.1381
L99.0346 67.1858
" />
<path d="M99.0346 67.1858
L98.9393 67.2334
" />
<path d="M98.9393 67.2334
L98.8917 67.2334
" />
<path d="M98.8917 67.2334
L98.7965 67.1858
" />
<path d="M98.7965 67.1858
L98.7488 67.1381
" />
<path d="M98.7488 67.1381
L98.7012 67.0429
" />
<path d="M98.7012 67.0429
L98.7012 66.8524
" />
<path d="M98.7012 66.8524
L98.7488 66.7572
" />
<path d="M98.7488 66.7572
L98.7965 66.7096
" />
<path d="M98.7965 66.7096
L98.8917 66.6619
" />
<path d="M98.8917 66.6619
L98.9393 66.6619
" />
<path d="M98.9393 66.6619
L99.0346 66.7096
" />
<path d="M99.0346 66.7096
L99.0822 66.7572
" />
<path d="M99.0822 66.7572
L99.1298 66.8524
" />
<path d="M99.1298 66.8524
L99.1298 67.0429
" />
<path d="M99.1298 67.0429
L99.1774 67.1381
" />
<path d="M99.1774 67.1381
L99.2250 67.1858
" />
<path d="M99.2250 67.1858
L99.3203 67.2334
" />
<path d="M99.3203 67.2334
L99.5107 67.2334
" />
<path d="M99.5107 67.2334
L99.6060 67.1858
" />
<path d="M99.6060 67.1858
L99.6536 67.1381
" />
<path d="M99.6536 67.1381
L99.7012 67.0429
" />
<path d="M99.7012 67.0429
L99.7012 66.8524
" />
<path d="M99.7012 66.8524
L99.6536 66.7572
" />
<path d="M99.6536 66.7572
L99.6060 66.7096
" />
<path d="M99.6060 66.7096
L99.5107 66.6619
" />
<path d="M99.5107 66.6619
L99.3203 66.6619
" />
<path d="M99.3203 66.6619
L99.2250 66.7096
" />
<path d="M99.2250 66.7096
L99.1774 66.7572
" />
<path d="M99.1774 66.7572
L99.1298 66.8524
" />
<path d="M98.7012 66.3762
L99.7012 66.0429
" />
<path d="M99.7012 66.0429
L98.7012 65.7096
" />
</g><text x="100.8466" y="64.0724"
textLength="1.4881" font-size="1.3333" lengthAdjust="spacingAndGlyphs"
text-anchor="middle" opacity="0" stroke-opacity="0">-</text>
<g class="stroked-text"><desc>-</desc>
<path d="M100.4656 63.6463
L101.2276 63.6463
" />
</g><text x="100.8974" y="74.7531"
textLength="1.4881" font-size="1.3333" lengthAdjust="spacingAndGlyphs"
text-anchor="middle" opacity="0" stroke-opacity="0">+</text>
<g class="stroked-text"><desc>+</desc>
<path d="M100.5164 74.3270
L101.2784 74.3270
" />
<path d="M100.8974 74.7079
L100.8974 73.9460
" />
</g><text x="115.4262" y="64.0724"
textLength="1.4881" font-size="1.3333" lengthAdjust="spacingAndGlyphs"
text-anchor="middle" opacity="0" stroke-opacity="0">-</text>
<g class="stroked-text"><desc>-</desc>
<path d="M115.0452 63.6463
L115.8072 63.6463
" />
</g><text x="115.5278" y="74.7277"
textLength="1.4881" font-size="1.3333" lengthAdjust="spacingAndGlyphs"
text-anchor="middle" opacity="0" stroke-opacity="0">+</text>
<g class="stroked-text"><desc>+</desc>
<path d="M115.1468 74.3016
L115.9088 74.3016
" />
<path d="M115.5278 74.6825
L115.5278 73.9206
" />
</g><g transform="rotate(-90.000000 117.8138 68.5508)">
<text x="117.8138" y="69.0508"
textLength="3.9643" font-size="1.3333" lengthAdjust="spacingAndGlyphs"
text-anchor="middle" opacity="0" stroke-opacity="0">VOUT</text>
</g>
<g class="stroked-text"><desc>VOUT</desc>
<path d="M117.2686 70.3127
L118.2686 69.9794
" />
<path d="M118.2686 69.9794
L117.2686 69.6460
" />
<path d="M117.2686 69.1222
L117.2686 68.9318
" />
<path d="M117.2686 68.9318
L117.3162 68.8365
" />
<path d="M117.3162 68.8365
L117.4115 68.7413
" />
<path d="M117.4115 68.7413
L117.6020 68.6937
" />
<path d="M117.6020 68.6937
L117.9353 68.6937
" />
<path d="M117.9353 68.6937
L118.1258 68.7413
" />
<path d="M118.1258 68.7413
L118.2210 68.8365
" />
<path d="M118.2210 68.8365
L118.2686 68.9318
" />
<path d="M118.2686 68.9318
L118.2686 69.1222
" />
<path d="M118.2686 69.1222
L118.2210 69.2175
" />
<path d="M118.2210 69.2175
L118.1258 69.3127
" />
<path d="M118.1258 69.3127
L117.9353 69.3603
" />
<path d="M117.9353 69.3603
L117.6020 69.3603
" />
<path d="M117.6020 69.3603
L117.4115 69.3127
" />
<path d="M117.4115 69.3127
L117.3162 69.2175
" />
<path d="M117.3162 69.2175
L117.2686 69.1222
" />
<path d="M117.2686 68.2651
L118.0781 68.2651
" />
<path d="M118.0781 68.2651
L118.1734 68.2175
" />
<path d="M118.1734 68.2175
L118.2210 68.1698
" />
<path d="M118.2210 68.1698
L118.2686 68.0746
" />
<path d="M118.2686 68.0746
L118.2686 67.8841
" />
<path d="M118.2686 67.8841
L118.2210 67.7889
" />
<path d="M118.2210 67.7889
L118.1734 67.7413
" />
<path d="M118.1734 67.7413
L118.0781 67.6937
" />
<path d="M118.0781 67.6937
L117.2686 67.6937
" />
<path d="M117.2686 67.3603
L117.2686 66.7889
" />
<path d="M118.2686 67.0746
L117.2686 67.0746
" />
</g></g>
<g style="fill:none; 
stroke:#F2EDA1; stroke-width:0.0500; stroke-opacity:1; 
stroke-linecap:round; stroke-linejoin:round;">
<g transform="rotate(-90.000000 147.8650 126.9600)">
<text x="147.8650" y="127.4600"
textLength="1.9500" font-size="1.3333" lengthAdjust="spacingAndGlyphs"
text-anchor="middle" opacity="0" stroke-opacity="0">U6</text>
</g>
<g class="stroked-text"><desc>U6</desc>
<path d="M147.3250 127.7219
L148.1345 127.7219
" />
<path d="M148.1345 127.7219
L148.2298 127.6743
" />
<path d="M148.2298 127.6743
L148.2774 127.6267
" />
<path d="M148.2774 127.6267
L148.3250 127.5314
" />
<path d="M148.3250 127.5314
L148.3250 127.3410
" />
<path d="M148.3250 127.3410
L148.2774 127.2457
" />
<path d="M148.2774 127.2457
L148.2298 127.1981
" />
<path d="M148.2298 127.1981
L148.1345 127.1505
" />
<path d="M148.1345 127.1505
L147.3250 127.1505
" />
<path d="M147.3250 126.2457
L147.3250 126.4362
" />
<path d="M147.3250 126.4362
L147.3726 126.5314
" />
<path d="M147.3726 126.5314
L147.4203 126.5790
" />
<path d="M147.4203 126.5790
L147.5631 126.6743
" />
<path d="M147.5631 126.6743
L147.7536 126.7219
" />
<path d="M147.7536 126.7219
L148.1345 126.7219
" />
<path d="M148.1345 126.7219
L148.2298 126.6743
" />
<path d="M148.2298 126.6743
L148.2774 126.6267
" />
<path d="M148.2774 126.6267
L148.3250 126.5314
" />
<path d="M148.3250 126.5314
L148.3250 126.3410
" />
<path d="M148.3250 126.3410
L148.2774 126.2457
" />
<path d="M148.2774 126.2457
L148.2298 126.1981
" />
<path d="M148.2298 126.1981
L148.1345 126.1505
" />
<path d="M148.1345 126.1505
L147.8964 126.1505
" />
<path d="M147.8964 126.1505
L147.8012 126.1981
" />
<path d="M147.8012 126.1981
L147.7536 126.2457
" />
<path d="M147.7536 126.2457
L147.7060 126.3410
" />
<path d="M147.7060 126.3410
L147.7060 126.5314
" />
<path d="M147.7060 126.5314
L147.7536 126.6267
" />
<path d="M147.7536 126.6267
L147.8012 126.6743
" />
<path d="M147.8012 126.6743
L147.8964 126.7219
" />
</g><g transform="rotate(-90.000000 167.3650 126.3250)">
<text x="167.3650" y="126.8250"
textLength="13.6167" font-size="1.3333" lengthAdjust="spacingAndGlyphs"
text-anchor="middle" opacity="0" stroke-opacity="0">MT3608  V BOOST</text>
</g>
<g class="stroked-text"><desc>MT3608  V BOOST</desc>
<path d="M167.8250 132.9202
L166.8250 132.9202
" />
<path d="M166.8250 132.9202
L167.5393 132.5869
" />
<path d="M167.5393 132.5869
L166.8250 132.2536
" />
<path d="M166.8250 132.2536
L167.8250 132.2536
" />
<path d="M166.8250 131.9202
L166.8250 131.3488
" />
<path d="M167.8250 131.6345
L166.8250 131.6345
" />
<path d="M166.8250 131.1107
L166.8250 130.4917
" />
<path d="M166.8250 130.4917
L167.2060 130.8250
" />
<path d="M167.2060 130.8250
L167.2060 130.6821
" />
<path d="M167.2060 130.6821
L167.2536 130.5869
" />
<path d="M167.2536 130.5869
L167.3012 130.5393
" />
<path d="M167.3012 130.5393
L167.3964 130.4917
" />
<path d="M167.3964 130.4917
L167.6345 130.4917
" />
<path d="M167.6345 130.4917
L167.7298 130.5393
" />
<path d="M167.7298 130.5393
L167.7774 130.5869
" />
<path d="M167.7774 130.5869
L167.8250 130.6821
" />
<path d="M167.8250 130.6821
L167.8250 130.9679
" />
<path d="M167.8250 130.9679
L167.7774 131.0631
" />
<path d="M167.7774 131.0631
L167.7298 131.1107
" />
<path d="M166.8250 129.6345
L166.8250 129.8250
" />
<path d="M166.8250 129.8250
L166.8726 129.9202
" />
<path d="M166.8726 129.9202
L166.9203 129.9679
" />
<path d="M166.9203 129.9679
L167.0631 130.0631
" />
<path d="M167.0631 130.0631
L167.2536 130.1107
" />
<path d="M167.2536 130.1107
L167.6345 130.1107
" />
<path d="M167.6345 130.1107
L167.7298 130.0631
" />
<path d="M167.7298 130.0631
L167.7774 130.0155
" />
<path d="M167.7774 130.0155
L167.8250 129.9202
" />
<path d="M167.8250 129.9202
L167.8250 129.7298
" />
<path d="M167.8250 129.7298
L167.7774 129.6345
" />
<path d="M167.7774 129.6345
L167.7298 129.5869
" />
<path d="M167.7298 129.5869
L167.6345 129.5393
" />
<path d="M167.6345 129.5393
L167.3964 129.5393
" />
<path d="M167.3964 129.5393
L167.3012 129.5869
" />
<path d="M167.3012 129.5869
L167.2536 129.6345
" />
<path d="M167.2536 129.6345
L167.2060 129.7298
" />
<path d="M167.2060 129.7298
L167.2060 129.9202
" />
<path d="M167.2060 129.9202
L167.2536 130.0155
" />
<path d="M167.2536 130.0155
L167.3012 130.0631
" />
<path d="M167.3012 130.0631
L167.3964 130.1107
" />
<path d="M166.8250 128.9202
L166.8250 128.8250
" />
<path d="M166.8250 128.8250
L166.8726 128.7298
" />
<path d="M166.8726 128.7298
L166.9203 128.6821
" />
<path d="M166.9203 128.6821
L167.0155 128.6345
" />
<path d="M167.0155 128.6345
L167.2060 128.5869
" />
<path d="M167.2060 128.5869
L167.4441 128.5869
" />
<path d="M167.4441 128.5869
L167.6345 128.6345
" />
<path d="M167.6345 128.6345
L167.7298 128.6821
" />
<path d="M167.7298 128.6821
L167.7774 128.7298
" />
<path d="M167.7774 128.7298
L167.8250 128.8250
" />
<path d="M167.8250 128.8250
L167.8250 128.9202
" />
<path d="M167.8250 128.9202
L167.7774 129.0155
" />
<path d="M167.7774 129.0155
L167.7298 129.0631
" />
<path d="M167.7298 129.0631
L167.6345 129.1107
" />
<path d="M167.6345 129.1107
L167.4441 129.1583
" />
<path d="M167.4441 129.1583
L167.2060 129.1583
" />
<path d="M167.2060 129.1583
L167.0155 129.1107
" />
<path d="M167.0155 129.1107
L166.9203 129.0631
" />
<path d="M166.9203 129.0631
L166.8726 129.0155
" />
<path d="M166.8726 129.0155
L166.8250 128.9202
" />
<path d="M167.2536 128.0155
L167.2060 128.1107
" />
<path d="M167.2060 128.1107
L167.1584 128.1583
" />
<path d="M167.1584 128.1583
L167.0631 128.2060
" />
<path d="M167.0631 128.2060
L167.0155 128.2060
" />
<path d="M167.0155 128.2060
L166.9203 128.1583
" />
<path d="M166.9203 128.1583
L166.8726 128.1107
" />
<path d="M166.8726 128.1107
L166.8250 128.0155
" />
<path d="M166.8250 128.0155
L166.8250 127.8250
" />
<path d="M166.8250 127.8250
L166.8726 127.7298
" />
<path d="M166.8726 127.7298
L166.9203 127.6821
" />
<path d="M166.9203 127.6821
L167.0155 127.6345
" />
<path d="M167.0155 127.6345
L167.0631 127.6345
" />
<path d="M167.0631 127.6345
L167.1584 127.6821
" />
<path d="M167.1584 127.6821
L167.2060 127.7298
" />
<path d="M167.2060 127.7298
L167.2536 127.8250
" />
<path d="M167.2536 127.8250
L167.2536 128.0155
" />
<path d="M167.2536 128.0155
L167.3012 128.1107
" />
<path d="M167.3012 128.1107
L167.3488 128.1583
" />
<path d="M167.3488 128.1583
L167.4441 128.2060
" />
<path d="M167.4441 128.2060
L167.6345 128.2060
" />
<path d="M167.6345 128.2060
L167.7298 128.1583
" />
<path d="M167.7298 128.1583
L167.7774 128.1107
" />
<path d="M167.7774 128.1107
L167.8250 128.0155
" />
<path d="M167.8250 128.0155
L167.8250 127.8250
" />
<path d="M167.8250 127.8250
L167.7774 127.7298
" />
<path d="M167.7774 127.7298
L167.7298 127.6821
" />
<path d="M167.7298 127.6821
L167.6345 127.6345
" />
<path d="M167.6345 127.6345
L167.4441 127.6345
" />
<path d="M167.4441 127.6345
L167.3488 127.6821
" />
<path d="M167.3488 127.6821
L167.3012 127.7298
" />
<path d="M167.3012 127.7298
L167.2536 127.8250
" />
<path d="M166.8250 125.8250
L167.8250 125.4917
" />
<path d="M167.8250 125.4917
L166.8250 125.1583
" />
<path d="M167.3012 123.7298
L167.3488 123.5869
" />
<path d="M167.3488 123.5869
L167.3964 123.5393
" />
<path d="M167.3964 123.5393
L167.4917 123.4917
" />
<path d="M167.4917 123.4917
L167.6345 123.4917
" />
<path d="M167.6345 123.4917
L167.7298 123.5393
" />
<path d="M167.7298 123.5393
L167.7774 123.5869
" />
<path d="M167.7774 123.5869
L167.8250 123.6821
" />
<path d="M167.8250 123.6821
L167.8250 124.0631
" />
<path d="M167.8250 124.0631
L166.8250 124.0631
" />
<path d="M166.8250 124.0631
L166.8250 123.7298
" />
<path d="M166.8250 123.7298
L166.8726 123.6345
" />
<path d="M166.8726 123.6345
L166.9203 123.5869
" />
<path d="M166.9203 123.5869
L167.0155 123.5393
" />
<path d="M167.0155 123.5393
L167.1107 123.5393
" />
<path d="M167.1107 123.5393
L167.2060 123.5869
" />
<path d="M167.2060 123.5869
L167.2536 123.6345
" />
<path d="M167.2536 123.6345
L167.3012 123.7298
" />
<path d="M167.3012 123.7298
L167.3012 124.0631
" />
<path d="M166.8250 122.8726
L166.8250 122.6821
" />
<path d="M166.8250 122.6821
L166.8726 122.5869
" />
<path d="M166.8726 122.5869
L166.9679 122.4917
" />
<path d="M166.9679 122.4917
L167.1584 122.4440
" />
<path d="M167.1584 122.4440
L167.4917 122.4440
" />
<path d="M167.4917 122.4440
L167.6822 122.4917
" />
<path d="M167.6822 122.4917
L167.7774 122.5869
" />
<path d="M167.7774 122.5869
L167.8250 122.6821
" />
<path d="M167.8250 122.6821
L167.8250 122.8726
" />
<path d="M167.8250 122.8726
L167.7774 122.9679
" />
<path d="M167.7774 122.9679
L167.6822 123.0631
" />
<path d="M167.6822 123.0631
L167.4917 123.1107
" />
<path d="M167.4917 123.1107
L167.1584 123.1107
" />
<path d="M167.1584 123.1107
L166.9679 123.0631
" />
<path d="M166.9679 123.0631
L166.8726 122.9679
" />
<path d="M166.8726 122.9679
L166.8250 122.8726
" />
<path d="M166.8250 121.8250
L166.8250 121.6345
" />
<path d="M166.8250 121.6345
L166.8726 121.5393
" />
<path d="M166.8726 121.5393
L166.9679 121.4440
" />
<path d="M166.9679 121.4440
L167.1584 121.3964
" />
<path d="M167.1584 121.3964
L167.4917 121.3964
" />
<path d="M167.4917 121.3964
L167.6822 121.4440
" />
<path d="M167.6822 121.4440
L167.7774 121.5393
" />
<path d="M167.7774 121.5393
L167.8250 121.6345
" />
<path d="M167.8250 121.6345
L167.8250 121.8250
" />
<path d="M167.8250 121.8250
L167.7774 121.9202
" />
<path d="M167.7774 121.9202
L167.6822 122.0155
" />
<path d="M167.6822 122.0155
L167.4917 122.0631
" />
<path d="M167.4917 122.0631
L167.1584 122.0631
" />
<path d="M167.1584 122.0631
L166.9679 122.0155
" />
<path d="M166.9679 122.0155
L166.8726 121.9202
" />
<path d="M166.8726 121.9202
L166.8250 121.8250
" />
<path d="M167.7774 121.0155
L167.8250 120.8726
" />
<path d="M167.8250 120.8726
L167.8250 120.6345
" />
<path d="M167.8250 120.6345
L167.7774 120.5393
" />
<path d="M167.7774 120.5393
L167.7298 120.4917
" />
<path d="M167.7298 120.4917
L167.6345 120.4440
" />
<path d="M167.6345 120.4440
L167.5393 120.4440
" />
<path d="M167.5393 120.4440
L167.4441 120.4917
" />
<path d="M167.4441 120.4917
L167.3964 120.5393
" />
<path d="M167.3964 120.5393
L167.3488 120.6345
" />
<path d="M167.3488 120.6345
L167.3012 120.8250
" />
<path d="M167.3012 120.8250
L167.2536 120.9202
" />
<path d="M167.2536 120.9202
L167.2060 120.9679
" />
<path d="M167.2060 120.9679
L167.1107 121.0155
" />
<path d="M167.1107 121.0155
L167.0155 121.0155
" />
<path d="M167.0155 121.0155
L166.9203 120.9679
" />
<path d="M166.9203 120.9679
L166.8726 120.9202
" />
<path d="M166.8726 120.9202
L166.8250 120.8250
" />
<path d="M166.8250 120.8250
L166.8250 120.5869
" />
<path d="M166.8250 120.5869
L166.8726 120.4440
" />
<path d="M166.8250 120.1583
L166.8250 119.5869
" />
<path d="M167.8250 119.8726
L166.8250 119.8726
" />
</g></g>
<g style="fill:none; 
stroke:#F2EDA1; stroke-width:0.1500; stroke-opacity:1; 
stroke-linecap:round; stroke-linejoin:round;">
<text x="121.0000" y="111.6500"
textLength="3.2024" font-size="1.3333" lengthAdjust="spacingAndGlyphs"
text-anchor="middle" opacity="0" stroke-opacity="0">U13</text>
<g class="stroked-text"><desc>U13</desc>
<path d="M119.7619 110.6048
L119.7619 111.4143
" />
<path d="M119.7619 111.4143
L119.8095 111.5096
" />
<path d="M119.8095 111.5096
L119.8571 111.5572
" />
<path d="M119.8571 111.5572
L119.9524 111.6048
" />
<path d="M119.9524 111.6048
L120.1429 111.6048
" />
<path d="M120.1429 111.6048
L120.2381 111.5572
" />
<path d="M120.2381 111.5572
L120.2857 111.5096
" />
<path d="M120.2857 111.5096
L120.3333 111.4143
" />
<path d="M120.3333 111.4143
L120.3333 110.6048
" />
<path d="M121.3333 111.6048
L120.7619 111.6048
" />
<path d="M121.0476 111.6048
L121.0476 110.6048
" />
<path d="M121.0476 110.6048
L120.9524 110.7477
" />
<path d="M120.9524 110.7477
L120.8571 110.8429
" />
<path d="M120.8571 110.8429
L120.7619 110.8905
" />
<path d="M121.6667 110.6048
L122.2857 110.6048
" />
<path d="M122.2857 110.6048
L121.9524 110.9858
" />
<path d="M121.9524 110.9858
L122.0952 110.9858
" />
<path d="M122.0952 110.9858
L122.1905 111.0334
" />
<path d="M122.1905 111.0334
L122.2381 111.0810
" />
<path d="M122.2381 111.0810
L122.2857 111.1762
" />
<path d="M122.2857 111.1762
L122.2857 111.4143
" />
<path d="M122.2857 111.4143
L122.2381 111.5096
" />
<path d="M122.2381 111.5096
L122.1905 111.5572
" />
<path d="M122.1905 111.5572
L122.0952 111.6048
" />
<path d="M122.0952 111.6048
L121.8095 111.6048
" />
<path d="M121.8095 111.6048
L121.7143 111.5572
" />
<path d="M121.7143 111.5572
L121.6667 111.5096
" />
</g></g>
<g style="fill:none; 
stroke:#F2EDA1; stroke-width:0.1000; stroke-opacity:1; 
stroke-linecap:round; stroke-linejoin:round;">
<g transform="rotate(-90.000000 200.3800 61.9900)">
<text x="200.3800" y="62.4900"
textLength="2.1000" font-size="1.3333" lengthAdjust="spacingAndGlyphs"
text-anchor="middle" opacity="0" stroke-opacity="0">U1</text>
</g>
<g class="stroked-text"><desc>U1</desc>
<path d="M199.8374 62.7519
L200.6469 62.7519
" />
<path d="M200.6469 62.7519
L200.7422 62.7043
" />
<path d="M200.7422 62.7043
L200.7898 62.6567
" />
<path d="M200.7898 62.6567
L200.8374 62.5614
" />
<path d="M200.8374 62.5614
L200.8374 62.3710
" />
<path d="M200.8374 62.3710
L200.7898 62.2757
" />
<path d="M200.7898 62.2757
L200.7422 62.2281
" />
<path d="M200.7422 62.2281
L200.6469 62.1805
" />
<path d="M200.6469 62.1805
L199.8374 62.1805
" />
<path d="M200.8374 61.1805
L200.8374 61.7519
" />
<path d="M200.8374 61.4662
L199.8374 61.4662
" />
<path d="M199.8374 61.4662
L199.9803 61.5614
" />
<path d="M199.9803 61.5614
L200.0755 61.6567
" />
<path d="M200.0755 61.6567
L200.1231 61.7519
" />
</g></g>
<g style="fill:none; 
stroke:#F2EDA1; stroke-width:0.0500; stroke-opacity:1; 
stroke-linecap:round; stroke-linejoin:round;">
<g transform="rotate(-90.000000 176.4325 109.1675)">
<text x="176.4325" y="109.6675"
textLength="1.9500" font-size="1.3333" lengthAdjust="spacingAndGlyphs"
text-anchor="middle" opacity="0" stroke-opacity="0">U8</text>
</g>
<g class="stroked-text"><desc>U8</desc>
<path d="M175.8925 109.9294
L176.7020 109.9294
" />
<path d="M176.7020 109.9294
L176.7973 109.8818
" />
<path d="M176.7973 109.8818
L176.8449 109.8342
" />
<path d="M176.8449 109.8342
L176.8925 109.7389
" />
<path d="M176.8925 109.7389
L176.8925 109.5485
" />
<path d="M176.8925 109.5485
L176.8449 109.4532
" />
<path d="M176.8449 109.4532
L176.7973 109.4056
" />
<path d="M176.7973 109.4056
L176.7020 109.3580
" />
<path d="M176.7020 109.3580
L175.8925 109.3580
" />
<path d="M176.3211 108.7389
L176.2735 108.8342
" />
<path d="M176.2735 108.8342
L176.2259 108.8818
" />
<path d="M176.2259 108.8818
L176.1306 108.9294
" />
<path d="M176.1306 108.9294
L176.0830 108.9294
" />
<path d="M176.0830 108.9294
L175.9878 108.8818
" />
<path d="M175.9878 108.8818
L175.9401 108.8342
" />
<path d="M175.9401 108.8342
L175.8925 108.7389
" />
<path d="M175.8925 108.7389
L175.8925 108.5485
" />
<path d="M175.8925 108.5485
L175.9401 108.4532
" />
<path d="M175.9401 108.4532
L175.9878 108.4056
" />
<path d="M175.9878 108.4056
L176.0830 108.3580
" />
<path d="M176.0830 108.3580
L176.1306 108.3580
" />
<path d="M176.1306 108.3580
L176.2259 108.4056
" />
<path d="M176.2259 108.4056
L176.2735 108.4532
" />
<path d="M176.2735 108.4532
L176.3211 108.5485
" />
<path d="M176.3211 108.5485
L176.3211 108.7389
" />
<path d="M176.3211 108.7389
L176.3687 108.8342
" />
<path d="M176.3687 108.8342
L176.4163 108.8818
" />
<path d="M176.4163 108.8818
L176.5116 108.9294
" />
<path d="M176.5116 108.9294
L176.7020 108.9294
" />
<path d="M176.7020 108.9294
L176.7973 108.8818
" />
<path d="M176.7973 108.8818
L176.8449 108.8342
" />
<path d="M176.8449 108.8342
L176.8925 108.7389
" />
<path d="M176.8925 108.7389
L176.8925 108.5485
" />
<path d="M176.8925 108.5485
L176.8449 108.4532
" />
<path d="M176.8449 108.4532
L176.7973 108.4056
" />
<path d="M176.7973 108.4056
L176.7020 108.3580
" />
<path d="M176.7020 108.3580
L176.5116 108.3580
" />
<path d="M176.5116 108.3580
L176.4163 108.4056
" />
<path d="M176.4163 108.4056
L176.3687 108.4532
" />
<path d="M176.3687 108.4532
L176.3211 108.5485
" />
</g><g transform="rotate(-90.000000 233.5825 113.2950)">
<text x="233.5825" y="113.7950"
textLength="14.9500" font-size="1.3333" lengthAdjust="spacingAndGlyphs"
text-anchor="middle" opacity="0" stroke-opacity="0">ESP32-DEVKITC-VE</text>
</g>
<g class="stroked-text"><desc>ESP32-DEVKITC-VE</desc>
<path d="M233.5187 120.5569
L233.5187 120.2236
" />
<path d="M234.0425 120.0807
L234.0425 120.5569
" />
<path d="M234.0425 120.5569
L233.0425 120.5569
" />
<path d="M233.0425 120.5569
L233.0425 120.0807
" />
<path d="M233.9949 119.6998
L234.0425 119.5569
" />
<path d="M234.0425 119.5569
L234.0425 119.3188
" />
<path d="M234.0425 119.3188
L233.9949 119.2236
" />
<path d="M233.9949 119.2236
L233.9473 119.1760
" />
<path d="M233.9473 119.1760
L233.8520 119.1283
" />
<path d="M233.8520 119.1283
L233.7568 119.1283
" />
<path d="M233.7568 119.1283
L233.6616 119.1760
" />
<path d="M233.6616 119.1760
L233.6139 119.2236
" />
<path d="M233.6139 119.2236
L233.5663 119.3188
" />
<path d="M233.5663 119.3188
L233.5187 119.5093
" />
<path d="M233.5187 119.5093
L233.4711 119.6045
" />
<path d="M233.4711 119.6045
L233.4235 119.6521
" />
<path d="M233.4235 119.6521
L233.3282 119.6998
" />
<path d="M233.3282 119.6998
L233.2330 119.6998
" />
<path d="M233.2330 119.6998
L233.1378 119.6521
" />
<path d="M233.1378 119.6521
L233.0901 119.6045
" />
<path d="M233.0901 119.6045
L233.0425 119.5093
" />
<path d="M233.0425 119.5093
L233.0425 119.2712
" />
<path d="M233.0425 119.2712
L233.0901 119.1283
" />
<path d="M234.0425 118.6998
L233.0425 118.6998
" />
<path d="M233.0425 118.6998
L233.0425 118.3188
" />
<path d="M233.0425 118.3188
L233.0901 118.2236
" />
<path d="M233.0901 118.2236
L233.1378 118.1760
" />
<path d="M233.1378 118.1760
L233.2330 118.1283
" />
<path d="M233.2330 118.1283
L233.3759 118.1283
" />
<path d="M233.3759 118.1283
L233.4711 118.1760
" />
<path d="M233.4711 118.1760
L233.5187 118.2236
" />
<path d="M233.5187 118.2236
L233.5663 118.3188
" />
<path d="M233.5663 118.3188
L233.5663 118.6998
" />
<path d="M233.0425 117.7950
L233.0425 117.1760
" />
<path d="M233.0425 117.1760
L233.4235 117.5093
" />
<path d="M233.4235 117.5093
L233.4235 117.3664
" />
<path d="M233.4235 117.3664
L233.4711 117.2712
" />
<path d="M233.4711 117.2712
L233.5187 117.2236
" />
<path d="M233.5187 117.2236
L233.6139 117.1760
" />
<path d="M233.6139 117.1760
L233.8520 117.1760
" />
<path d="M233.8520 117.1760
L233.9473 117.2236
" />
<path d="M233.9473 117.2236
L233.9949 117.2712
" />
<path d="M233.9949 117.2712
L234.0425 117.3664
" />
<path d="M234.0425 117.3664
L234.0425 117.6521
" />
<path d="M234.0425 117.6521
L233.9949 117.7474
" />
<path d="M233.9949 117.7474
L233.9473 117.7950
" />
<path d="M233.1378 116.7950
L233.0901 116.7474
" />
<path d="M233.0901 116.7474
L233.0425 116.6521
" />
<path d="M233.0425 116.6521
L233.0425 116.4140
" />
<path d="M233.0425 116.4140
L233.0901 116.3188
" />
<path d="M233.0901 116.3188
L233.1378 116.2712
" />
<path d="M233.1378 116.2712
L233.2330 116.2236
" />
<path d="M233.2330 116.2236
L233.3282 116.2236
" />
<path d="M233.3282 116.2236
L233.4711 116.2712
" />
<path d="M233.4711 116.2712
L234.0425 116.8426
" />
<path d="M234.0425 116.8426
L234.0425 116.2236
" />
<path d="M233.6616 115.7950
L233.6616 115.0331
" />
<path d="M234.0425 114.5569
L233.0425 114.5569
" />
<path d="M233.0425 114.5569
L233.0425 114.3188
" />
<path d="M233.0425 114.3188
L233.0901 114.1760
" />
<path d="M233.0901 114.1760
L233.1854 114.0807
" />
<path d="M233.1854 114.0807
L233.2806 114.0331
" />
<path d="M233.2806 114.0331
L233.4711 113.9855
" />
<path d="M233.4711 113.9855
L233.6139 113.9855
" />
<path d="M233.6139 113.9855
L233.8044 114.0331
" />
<path d="M233.8044 114.0331
L233.8997 114.0807
" />
<path d="M233.8997 114.0807
L233.9949 114.1760
" />
<path d="M233.9949 114.1760
L234.0425 114.3188
" />
<path d="M234.0425 114.3188
L234.0425 114.5569
" />
<path d="M233.5187 113.5569
L233.5187 113.2236
" />
<path d="M234.0425 113.0807
L234.0425 113.5569
" />
<path d="M234.0425 113.5569
L233.0425 113.5569
" />
<path d="M233.0425 113.5569
L233.0425 113.0807
" />
<path d="M233.0425 112.7950
L234.0425 112.4617
" />
<path d="M234.0425 112.4617
L233.0425 112.1283
" />
<path d="M234.0425 111.7950
L233.0425 111.7950
" />
<path d="M234.0425 111.2236
L233.4711 111.6521
" />
<path d="M233.0425 111.2236
L233.6139 111.7950
" />
<path d="M234.0425 110.7950
L233.0425 110.7950
" />
<path d="M233.0425 110.4617
L233.0425 109.8902
" />
<path d="M234.0425 110.1760
L233.0425 110.1760
" />
<path d="M233.9473 108.9855
L233.9949 109.0331
" />
<path d="M233.9949 109.0331
L234.0425 109.1760
" />
<path d="M234.0425 109.1760
L234.0425 109.2712
" />
<path d="M234.0425 109.2712
L233.9949 109.4140
" />
<path d="M233.9949 109.4140
L233.8997 109.5093
" />
<path d="M233.8997 109.5093
L233.8044 109.5569
" />
<path d="M233.8044 109.5569
L233.6139 109.6045
" />
<path d="M233.6139 109.6045
L233.4711 109.6045
" />
<path d="M233.4711 109.6045
L233.2806 109.5569
" />
<path d="M233.2806 109.5569
L233.1854 109.5093
" />
<path d="M233.1854 109.5093
L233.0901 109.4140
" />
<path d="M233.0901 109.4140
L233.0425 109.2712
" />
<path d="M233.0425 109.2712
L233.0425 109.1760
" />
<path d="M233.0425 109.1760
L233.0901 109.0331
" />
<path d="M233.0901 109.0331
L233.1378 108.9855
" />
<path d="M233.6616 108.5569
L233.6616 107.7950
" />
<path d="M233.0425 107.4617
L234.0425 107.1283
" />
<path d="M234.0425 107.1283
L233.0425 106.7950
" />
<path d="M233.5187 106.4617
L233.5187 106.1283
" />
<path d="M234.0425 105.9855
L234.0425 106.4617
" />
<path d="M234.0425 106.4617
L233.0425 106.4617
" />
<path d="M233.0425 106.4617
L233.0425 105.9855
" />
</g></g>
<g style="fill:none; 
stroke:#F2EDA1; stroke-width:0.1500; stroke-opacity:1; 
stroke-linecap:round; stroke-linejoin:round;">
<text x="86.5000" y="104.1000"
textLength="3.8214" font-size="1.3333" lengthAdjust="spacingAndGlyphs"
text-anchor="middle" opacity="0" stroke-opacity="0">BAT1</text>
<g class="stroked-text"><desc>BAT1</desc>
<path d="M85.2857 103.5310
L85.4286 103.5786
" />
<path d="M85.4286 103.5786
L85.4762 103.6262
" />
<path d="M85.4762 103.6262
L85.5238 103.7215
" />
<path d="M85.5238 103.7215
L85.5238 103.8643
" />
<path d="M85.5238 103.8643
L85.4762 103.9596
" />
<path d="M85.4762 103.9596
L85.4286 104.0072
" />
<path d="M85.4286 104.0072
L85.3333 104.0548
" />
<path d="M85.3333 104.0548
L84.9524 104.0548
" />
<path d="M84.9524 104.0548
L84.9524 103.0548
" />
<path d="M84.9524 103.0548
L85.2857 103.0548
" />
<path d="M85.2857 103.0548
L85.3810 103.1024
" />
<path d="M85.3810 103.1024
L85.4286 103.1501
" />
<path d="M85.4286 103.1501
L85.4762 103.2453
" />
<path d="M85.4762 103.2453
L85.4762 103.3405
" />
<path d="M85.4762 103.3405
L85.4286 103.4358
" />
<path d="M85.4286 103.4358
L85.3810 103.4834
" />
<path d="M85.3810 103.4834
L85.2857 103.5310
" />
<path d="M85.2857 103.5310
L84.9524 103.5310
" />
<path d="M85.9048 103.7691
L86.3810 103.7691
" />
<path d="M85.8095 104.0548
L86.1429 103.0548
" />
<path d="M86.1429 103.0548
L86.4762 104.0548
" />
<path d="M86.6667 103.0548
L87.2381 103.0548
" />
<path d="M86.9524 104.0548
L86.9524 103.0548
" />
<path d="M88.0952 104.0548
L87.5238 104.0548
" />
<path d="M87.8095 104.0548
L87.8095 103.0548
" />
<path d="M87.8095 103.0548
L87.7143 103.1977
" />
<path d="M87.7143 103.1977
L87.6190 103.2929
" />
<path d="M87.6190 103.2929
L87.5238 103.3405
" />
</g><g transform="rotate(-90.000000 85.5000 84.9000)">
<text x="85.5000" y="85.4000"
textLength="2.2024" font-size="1.3333" lengthAdjust="spacingAndGlyphs"
text-anchor="middle" opacity="0" stroke-opacity="0">D3</text>
</g>
<g class="stroked-text"><desc>D3</desc>
<path d="M85.9548 85.6381
L84.9548 85.6381
" />
<path d="M84.9548 85.6381
L84.9548 85.4000
" />
<path d="M84.9548 85.4000
L85.0024 85.2571
" />
<path d="M85.0024 85.2571
L85.0977 85.1619
" />
<path d="M85.0977 85.1619
L85.1929 85.1143
" />
<path d="M85.1929 85.1143
L85.3834 85.0667
" />
<path d="M85.3834 85.0667
L85.5262 85.0667
" />
<path d="M85.5262 85.0667
L85.7167 85.1143
" />
<path d="M85.7167 85.1143
L85.8120 85.1619
" />
<path d="M85.8120 85.1619
L85.9072 85.2571
" />
<path d="M85.9072 85.2571
L85.9548 85.4000
" />
<path d="M85.9548 85.4000
L85.9548 85.6381
" />
<path d="M84.9548 84.7333
L84.9548 84.1143
" />
<path d="M84.9548 84.1143
L85.3358 84.4476
" />
<path d="M85.3358 84.4476
L85.3358 84.3048
" />
<path d="M85.3358 84.3048
L85.3834 84.2095
" />
<path d="M85.3834 84.2095
L85.4310 84.1619
" />
<path d="M85.4310 84.1619
L85.5262 84.1143
" />
<path d="M85.5262 84.1143
L85.7643 84.1143
" />
<path d="M85.7643 84.1143
L85.8596 84.1619
" />
<path d="M85.8596 84.1619
L85.9072 84.2095
" />
<path d="M85.9072 84.2095
L85.9548 84.3048
" />
<path d="M85.9548 84.3048
L85.9548 84.5905
" />
<path d="M85.9548 84.5905
L85.9072 84.6857
" />
<path d="M85.9072 84.6857
L85.8596 84.7333
" />
</g></g>
<g style="fill:none; 
stroke:#F2EDA1; stroke-width:0.1200; stroke-opacity:1; 
stroke-linecap:round; stroke-linejoin:round;">
<circle cx="68.2000" cy="106.5000" r="6.1000" /> 
<path d="M123.7900 95.5450
L123.7900 92.4550
" />
<path d="M123.7900 92.4552 A2.9900 2.9900 0.0 0 0 118.2400 94.0000" />
<path d="M118.2400 94.0000 A2.9900 2.9900 0.0 0 0 123.7900 95.5448" />
<circle cx="121.2300" cy="94.0000" r="2.5000" /> 
<path d="M118.4400 101.4550
L118.4400 104.5450
" />
<path d="M123.9900 103.0000 A2.9900 2.9900 0.0 0 0 118.4400 101.4552" />
<path d="M118.4400 104.5448 A2.9900 2.9900 0.0 0 0 123.9900 103.0000" />
<circle cx="121.0000" cy="103.0000" r="2.5000" /> 
<path d="M56.7200 71.5000
L60.0300 71.5000
" />
<path d="M69.8800 71.5000
L66.5700 71.5000
" />
<path style="fill:none; 
stroke:#F2EDA1; stroke-width:0.1200; stroke-opacity:1; 
stroke-linecap:round; stroke-linejoin:round;fill:none"
d="M 60.0300,70.1300
66.5700,70.1300
66.5700,72.8700
60.0300,72.8700
Z" /> 
<path style="fill:none; 
stroke:#F2EDA1; stroke-width:0.1000; stroke-opacity:1; 
stroke-linecap:round; stroke-linejoin:round;fill:none"
d="M 123.8250,60.4100
153.0950,60.4100
153.0950,77.4300
123.8250,77.4300
Z" /> 
</g>
<g style="fill:none; 
stroke:#F2EDA1; stroke-width:0.1270; stroke-opacity:1; 
stroke-linecap:round; stroke-linejoin:round;">
<path d="M158.7000 53.5600
L158.7000 79.6400
" />
<path d="M158.7000 79.6400
L194.3000 79.6400
" />
<path d="M194.3000 53.5600
L158.7000 53.5600
" />
<path d="M194.3000 79.6400
L194.3000 53.5600
" />
</g>
<g style="fill:none; 
stroke:#F2EDA1; stroke-width:0.2000; stroke-opacity:1; 
stroke-linecap:round; stroke-linejoin:round;">
<circle cx="192.6400" cy="80.3900" r="0.1000" /> 
</g>
<g style="fill:none; 
stroke:#F2EDA1; stroke-width:0.1270; stroke-opacity:1; 
stroke-linecap:round; stroke-linejoin:round;">
<path d="M208.8500 125.6500
L229.1500 125.6500
" />
<path d="M208.8500 141.3500
L208.8500 128.4425
" />
<path d="M229.1500 128.4425
L229.1500 141.3500
" />
<path d="M229.1500 141.3500
L208.8500 141.3500
" />
</g>
<g style="fill:none; 
stroke:#F2EDA1; stroke-width:0.1200; stroke-opacity:1; 
stroke-linecap:round; stroke-linejoin:round;">
<path d="M98.9200 110.0000
L102.2300 110.0000
" />
<path d="M112.0800 110.0000
L108.7700 110.0000
" />
<path style="fill:none; 
stroke:#F2EDA1; stroke-width:0.1200; stroke-opacity:1; 
stroke-linecap:round; stroke-linejoin:round;fill:none"
d="M 102.2300,108.6300
108.7700,108.6300
108.7700,111.3700
102.2300,111.3700
Z" /> 
<path d="M99.3000 93.5000
L102.6100 93.5000
" />
<path d="M112.4600 93.5000
L109.1500 93.5000
" />
<path style="fill:none; 
stroke:#F2EDA1; stroke-width:0.1200; stroke-opacity:1; 
stroke-linecap:round; stroke-linejoin:round;fill:none"
d="M 102.6100,92.1300
109.1500,92.1300
109.1500,94.8700
102.6100,94.8700
Z" /> 
<path d="M71.6800 68.6550
L71.6800 67.3850
" />
<path d="M72.5200 66.2250
L72.5200 65.9950
" />
<path d="M72.9500 68.6550
L71.6800 68.6550
" />
<path d="M73.3800 66.2250
L73.3800 65.9950
" />
<path d="M74.2200 65.9950
L74.2200 63.2350
" />
<path d="M75.0600 57.2350
L75.9200 57.2350
" />
<path d="M75.0600 63.2350
L75.0600 57.2350
" />
<path d="M75.0600 66.3076
L75.0600 65.9950
" />
<path d="M75.9200 57.2350
L75.9200 63.2350
" />
<path d="M75.9200 66.3076
L75.9200 65.9950
" />
<path d="M76.7600 65.9950
L76.7600 63.2350
" />
<path d="M77.6000 57.2350
L78.4600 57.2350
" />
<path d="M77.6000 63.2350
L77.6000 57.2350
" />
<path d="M77.6000 66.3076
L77.6000 65.9950
" />
<path d="M78.4600 57.2350
L78.4600 63.2350
" />
<path d="M78.4600 66.3076
L78.4600 65.9950
" />
<path d="M79.3000 65.9950
L79.3000 63.2350
" />
<path d="M80.1400 57.2350
L81.0000 57.2350
" />
<path d="M80.1400 63.2350
L80.1400 57.2350
" />
<path d="M80.1400 66.3076
L80.1400 65.9950
" />
<path d="M81.0000 57.2350
L81.0000 63.2350
" />
<path d="M81.0000 66.3076
L81.0000 65.9950
" />
<path d="M81.8400 65.9950
L81.8400 63.2350
" />
<path d="M82.6800 57.2350
L83.5400 57.2350
" />
<path d="M82.6800 63.2350
L82.6800 57.2350
" />
<path d="M82.6800 66.3076
L82.6800 65.9950
" />
<path d="M83.5400 57.2350
L83.5400 63.2350
" />
<path d="M83.5400 66.3076
L83.5400 65.9950
" />
<path d="M84.3800 65.9950
L84.3800 63.2350
" />
<path d="M85.2200 57.2350
L86.0800 57.2350
" />
<path d="M85.2200 63.2350
L85.2200 57.2350
" />
<path d="M85.2200 66.3076
L85.2200 65.9950
" />
<path d="M86.0800 57.2350
L86.0800 63.2350
" />
<path d="M86.0800 66.3076
L86.0800 65.9950
" />
<path style="fill:none; 
stroke:#F2EDA1; stroke-width:0.1200; stroke-opacity:1; 
stroke-linecap:round; stroke-linejoin:round;fill:none"
d="M 71.5700,63.2350
87.0300,63.2350
87.0300,65.9950
71.5700,65.9950
Z" /> 
<path style="fill:#F2EDA1; fill-opacity:1.0000; 
stroke:#F2EDA1; stroke-width:0.1200; stroke-opacity:1; 
stroke-linecap:round; stroke-linejoin:round;fill-rule:evenodd;"
d="M 72.5200,57.2350
73.3800,57.2350
73.3800,63.2350
72.5200,63.2350
Z" /> 
</g>
<g style="fill:none; 
stroke:#F2EDA1; stroke-width:0.1200; stroke-opacity:1; 
stroke-linecap:round; stroke-linejoin:round;">
<path d="M56.7200 76.5000
L60.0300 76.5000
" />
<path d="M69.8800 76.5000
L66.5700 76.5000
" />
<path style="fill:none; 
stroke:#F2EDA1; stroke-width:0.1200; stroke-opacity:1; 
stroke-linecap:round; stroke-linejoin:round;fill:none"
d="M 60.0300,75.1300
66.5700,75.1300
66.5700,77.8700
60.0300,77.8700
Z" /> 
<path d="M91.8900 79.7000
L91.8900 84.8000
" />
<path d="M95.1100 79.7000
L95.1100 84.8000
" />
<path style="fill:none; 
stroke:#F2EDA1; stroke-width:0.1000; stroke-opacity:1; 
stroke-linecap:round; stroke-linejoin:round;fill:none"
d="M 130.6373,92.1904
143.3627,92.1904
143.3627,118.8096
130.6373,118.8096
Z" /> 
</g>
<g style="fill:none; 
stroke:#F2EDA1; stroke-width:0.1200; stroke-opacity:1; 
stroke-linecap:round; stroke-linejoin:round;">
<path d="M98.8000 103.0000
L102.1100 103.0000
" />
<path d="M111.9600 103.0000
L108.6500 103.0000
" />
<path style="fill:none; 
stroke:#F2EDA1; stroke-width:0.1200; stroke-opacity:1; 
stroke-linecap:round; stroke-linejoin:round;fill:none"
d="M 102.1100,101.6300
108.6500,101.6300
108.6500,104.3700
102.1100,104.3700
Z" /> 
<path d="M97.8240 61.0070
L97.8240 77.1360
" />
<path d="M97.8240 77.1360
L119.1600 77.1360
" />
<path d="M101.5832 66.6204
L107.6792 66.6204
" />
<path d="M101.5832 71.0908
L101.5832 66.6204
" />
<path d="M102.7008 62.7342
L106.1298 62.7342
" />
<path d="M102.7008 64.0042
L102.7008 62.7342
" />
<path d="M106.1298 62.7342
L106.1298 64.0042
" />
<path d="M106.1298 64.0042
L102.7008 64.0042
" />
<path d="M107.6792 71.0908
L101.5832 71.0908
" />
<path d="M107.6792 71.0908
L107.6792 66.6204
" />
<path d="M109.3556 65.0456
L109.3556 71.7004
" />
<path d="M109.3556 65.0456
L116.0104 65.0456
" />
<path d="M110.9304 67.9031
L113.5593 67.9031
" />
<path d="M110.9304 68.5381
L110.9304 67.9031
" />
<path d="M110.9304 68.5381
L113.5593 68.5381
" />
<path d="M113.5593 67.2046
L114.8293 68.2206
" />
<path d="M113.5593 67.9031
L113.5593 67.2046
" />
<path d="M113.5593 69.3001
L113.5593 68.5381
" />
<path d="M114.8293 68.2206
L113.5593 69.3001
" />
<path d="M116.0104 65.0456
L116.0104 71.7004
" />
<path d="M116.0104 71.7004
L109.3556 71.7004
" />
<path d="M119.1600 61.0070
L97.8240 61.0070
" />
<path d="M119.1600 77.1360
L119.1600 61.0070
" />
<circle cx="100.8466" cy="63.6359" r="0.7646" /> 
<circle cx="100.8974" cy="74.3166" r="0.7646" /> 
<circle cx="115.4262" cy="63.6359" r="0.7646" /> 
<circle cx="115.5278" cy="74.2912" r="0.7646" /> 
<path style="fill:none; 
stroke:#F2EDA1; stroke-width:0.1000; stroke-opacity:1; 
stroke-linecap:round; stroke-linejoin:round;fill:none"
d="M 102.2944,65.9600
102.7008,65.9600
102.7008,66.5696
102.2944,66.5696
Z" /> 
<path style="fill:#F2EDA1; fill-opacity:1.0000; stroke:none;fill-rule:evenodd;"
d="M 102.7008,66.5696
102.2944,66.5696
102.2944,65.9600
102.7008,65.9600
Z" /> 
<path style="fill:none; 
stroke:#F2EDA1; stroke-width:0.1000; stroke-opacity:1; 
stroke-linecap:round; stroke-linejoin:round;fill:none"
d="M 102.2944,71.1416
102.7008,71.1416
102.7008,71.7512
102.2944,71.7512
Z" /> 
<path style="fill:#F2EDA1; fill-opacity:1.0000; stroke:none;fill-rule:evenodd;"
d="M 102.7008,71.7512
102.2944,71.7512
102.2944,71.1416
102.7008,71.1416
Z" /> 
<path style="fill:none; 
stroke:#F2EDA1; stroke-width:0.1000; stroke-opacity:1; 
stroke-linecap:round; stroke-linejoin:round;fill:none"
d="M 103.7676,65.9600
104.1740,65.9600
104.1740,66.5696
103.7676,66.5696
Z" /> 
<path style="fill:#F2EDA1; fill-opacity:1.0000; stroke:none;fill-rule:evenodd;"
d="M 104.1740,66.5696
103.7676,66.5696
103.7676,65.9600
104.1740,65.9600
Z" /> 
<path style="fill:none; 
stroke:#F2EDA1; stroke-width:0.1000; stroke-opacity:1; 
stroke-linecap:round; stroke-linejoin:round;fill:none"
d="M 103.7676,71.1416
104.1740,71.1416
104.1740,71.7512
103.7676,71.7512
Z" /> 
<path style="fill:#F2EDA1; fill-opacity:1.0000; stroke:none;fill-rule:evenodd;"
d="M 104.1740,71.7512
103.7676,71.7512
103.7676,71.1416
104.1740,71.1416
Z" /> 
<path style="fill:none; 
stroke:#F2EDA1; stroke-width:0.1000; stroke-opacity:1; 
stroke-linecap:round; stroke-linejoin:round;fill:none"
d="M 105.2408,65.9600
105.6472,65.9600
105.6472,66.5696
105.2408,66.5696
Z" /> 
<path style="fill:#F2EDA1; fill-opacity:1.0000; stroke:none;fill-rule:evenodd;"
d="M 105.6472,66.5696
105.2408,66.5696
105.2408,65.9600
105.6472,65.9600
Z" /> 
<path style="fill:none; 
stroke:#F2EDA1; stroke-width:0.1000; stroke-opacity:1; 
stroke-linecap:round; stroke-linejoin:round;fill:none"
d="M 105.2408,71.1416
105.6472,71.1416
105.6472,71.7512
105.2408,71.7512
Z" /> 
<path style="fill:#F2EDA1; fill-opacity:1.0000; stroke:none;fill-rule:evenodd;"
d="M 105.6472,71.7512
105.2408,71.7512
105.2408,71.1416
105.6472,71.1416
Z" /> 
<path style="fill:none; 
stroke:#F2EDA1; stroke-width:0.1000; stroke-opacity:1; 
stroke-linecap:round; stroke-linejoin:round;fill:none"
d="M 106.7648,65.9600
107.1712,65.9600
107.1712,66.5696
106.7648,66.5696
Z" /> 
<path style="fill:#F2EDA1; fill-opacity:1.0000; stroke:none;fill-rule:evenodd;"
d="M 107.1712,66.5696
106.7648,66.5696
106.7648,65.9600
107.1712,65.9600
Z" /> 
<path style="fill:none; 
stroke:#F2EDA1; stroke-width:0.1000; stroke-opacity:1; 
stroke-linecap:round; stroke-linejoin:round;fill:none"
d="M 106.7648,71.1416
107.1712,71.1416
107.1712,71.7512
106.7648,71.7512
Z" /> 
<path style="fill:#F2EDA1; fill-opacity:1.0000; stroke:none;fill-rule:evenodd;"
d="M 107.1712,71.7512
106.7648,71.7512
106.7648,71.1416
107.1712,71.1416
Z" /> 
</g>
<g style="fill:none; 
stroke:#F2EDA1; stroke-width:0.1270; stroke-opacity:1; 
stroke-linecap:round; stroke-linejoin:round;">
<path d="M148.9000 92.4250
L152.0800 92.4250
" />
<path d="M148.9000 129.5750
L148.9000 92.4250
" />
<path d="M152.0800 129.5750
L148.9000 129.5750
" />
<path d="M155.7200 92.4250
L159.2800 92.4250
" />
<path d="M159.2800 129.5750
L155.7200 129.5750
" />
<path d="M162.9200 92.4250
L166.1000 92.4250
" />
<path d="M166.1000 92.4250
L166.1000 129.5750
" />
<path d="M166.1000 129.5750
L162.9200 129.5750
" />
</g>
<g style="fill:none; 
stroke:#F2EDA1; stroke-width:0.1200; stroke-opacity:1; 
stroke-linecap:round; stroke-linejoin:round;">
<path d="M118.6000 116.7400
L123.4000 116.7400
" />
<path d="M118.6000 121.9300
L118.6000 116.7400
" />
<path d="M119.7300 113.9500
L119.7300 116.7400
" />
<path d="M121.0000 113.9500
L121.0000 116.7400
" />
<path d="M122.2700 113.9500
L122.2700 116.7400
" />
<path d="M123.4000 116.7400
L123.4000 121.9300
" />
<path d="M123.4000 121.9300
L118.6000 121.9300
" />
<path d="M76.9200 71.5000
L80.2300 71.5000
" />
<path d="M90.0800 71.5000
L86.7700 71.5000
" />
<path style="fill:none; 
stroke:#F2EDA1; stroke-width:0.1200; stroke-opacity:1; 
stroke-linecap:round; stroke-linejoin:round;fill:none"
d="M 80.2300,70.1300
86.7700,70.1300
86.7700,72.8700
80.2300,72.8700
Z" /> 
<path style="fill:none; 
stroke:#F2EDA1; stroke-width:0.1000; stroke-opacity:1; 
stroke-linecap:round; stroke-linejoin:round;fill:none"
d="M 205.4600,56.3100
231.4600,56.3100
231.4600,79.7700
205.4600,79.7700
Z" /> 
</g>
<g style="fill:none; 
stroke:#F2EDA1; stroke-width:0.1270; stroke-opacity:1; 
stroke-linecap:round; stroke-linejoin:round;">
<path d="M177.6300 93.5000
L184.3700 93.5000
" />
<path d="M177.6300 111.5000
L177.6300 93.5000
" />
<path d="M184.3700 93.5000
L184.3700 89.5300
" />
<path d="M184.3700 111.5000
L177.6300 111.5000
" />
<path d="M184.3700 115.4700
L184.3700 111.5000
" />
<path d="M231.6300 88.5300
L185.3700 88.5300
" />
<path d="M231.6300 116.4700
L185.3700 116.4700
" />
<path d="M232.6300 98.4500
L232.6300 89.5300
" />
<path d="M232.6300 106.5500
L233.6300 106.5500
" />
<path d="M232.6300 115.4700
L232.6300 106.5500
" />
<path d="M233.6300 98.4500
L232.6300 98.4500
" />
<path d="M233.6300 106.5500
L233.6300 98.4500
" />
<path d="M185.3700 88.5300 A1.0000 1.0000 0.0 0 0 184.3700 89.5300" />
<path d="M184.3700 115.4700 A1.0000 1.0000 0.0 0 0 185.3700 116.4700" />
<path d="M232.6300 89.5300 A1.0000 1.0000 0.0 0 0 231.6300 88.5300" />
<path d="M231.6300 116.4700 A1.0000 1.0000 0.0 0 0 232.6300 115.4700" />
</g>
<g style="fill:none; 
stroke:#F2EDA1; stroke-width:0.2000; stroke-opacity:1; 
stroke-linecap:round; stroke-linejoin:round;">
<circle cx="185.6650" cy="117.0000" r="0.1000" /> 
<path style="fill:none; 
stroke:#F2EDA1; stroke-width:0.1000; stroke-opacity:1; 
stroke-linecap:round; stroke-linejoin:round;fill:none"
d="M 175.2920,123.6960
201.7080,123.6960
201.7080,162.3800
175.2920,162.3800
Z" /> 
</g>
<g style="fill:none; 
stroke:#F2EDA1; stroke-width:0.1200; stroke-opacity:1; 
stroke-linecap:round; stroke-linejoin:round;">
<path d="M83.1400 104.3900
L83.1400 105.6400
" />
<path d="M83.4400 106.0000
L84.0500 106.0000
" />
<path d="M83.4400 107.3000
L84.0500 107.3000
" />
<path d="M84.0500 105.3000
L84.0500 108.8000
" />
<path d="M84.0500 108.8000
L88.9500 108.8000
" />
<path d="M84.3900 104.3900
L83.1400 104.3900
" />
<path d="M84.9000 104.4900
L84.9000 104.6900
" />
<path d="M85.2000 104.4900
L84.9000 104.4900
" />
<path d="M85.2000 104.5900
L84.9000 104.5900
" />
<path d="M85.2000 104.6900
L85.2000 104.4900
" />
<path d="M86.0000 104.6900
L86.0000 105.3000
" />
<path d="M86.0000 105.3000
L84.0500 105.3000
" />
<path d="M86.4000 108.3000
L86.6000 108.3000
" />
<path d="M86.4000 108.8000
L86.4000 108.3000
" />
<path d="M86.5000 108.8000
L86.5000 108.3000
" />
<path d="M86.6000 108.3000
L86.6000 108.8000
" />
<path d="M87.0000 105.3000
L87.0000 104.6900
" />
<path d="M88.9500 105.3000
L87.0000 105.3000
" />
<path d="M88.9500 108.8000
L88.9500 105.3000
" />
<path d="M89.5600 106.0000
L88.9500 106.0000
" />
<path d="M89.5600 107.3000
L88.9500 107.3000
" />
<path style="fill:none; 
stroke:#F2EDA1; stroke-width:0.1200; stroke-opacity:1; 
stroke-linecap:round; stroke-linejoin:round;fill:none"
d="M 83.4400,104.6900
89.5600,104.6900
89.5600,109.4100
83.4400,109.4100
Z" /> 
<path d="M80.3500 79.9400
L80.3500 87.6000
" />
<path d="M84.6500 79.9400
L80.3500 79.9400
" />
<path d="M84.6500 79.9400
L84.6500 87.6000
" />
</g> 
</svg>
