<?xml version="1.0" standalone="no"?>
 <!DOCTYPE svg PUBLIC "-//W3C//DTD SVG 1.1//EN" 
 "http://www.w3.org/Graphics/SVG/1.1/DTD/svg11.dtd"> 
<svg
  xmlns:svg="http://www.w3.org/2000/svg"
  xmlns="http://www.w3.org/2000/svg"
  xmlns:xlink="http://www.w3.org/1999/xlink"
  xmlns:inkscape="http://www.inkscape.org/namespaces/inkscape"
  version="1.1"
  width="297.0022mm" height="210.0072mm" viewBox="0.0000 0.0000 297.0022 210.0072">
<title>SVG Image created as EV_Guardian_Carrier-F_Cu.svg date 2026-06-20T00:43:51 </title>
  <desc>Image generated by PCBNEW </desc>
<g style="fill:#000000; fill-opacity:1.0000;stroke:#000000; stroke-opacity:1.0000;
stroke-linecap:round; stroke-linejoin:round;"
 transform="translate(0 0) scale(1 1)">
<path style="fill:#C83434; fill-opacity:1.0000; stroke:none;fill-rule:evenodd;"
d="M 73.0000,105.5000
73.0000,107.5000
71.0000,107.5000
71.0000,105.5000
Z" /> 
</g>
<g style="fill:#C83434; fill-opacity:1.0000; stroke:none;">
<circle cx="64.4000" cy="106.5000" r="1.0000" /> 
<path style="fill:#C83434; fill-opacity:1.0000; stroke:none;fill-rule:evenodd;"
d="M 123.4000,93.1000
123.4000,94.9000
121.6000,94.9000
121.6000,93.1000
Z" /> 
<circle cx="119.9600" cy="94.0000" r="0.9000" /> 
<path style="fill:#C83434; fill-opacity:1.0000; stroke:none;fill-rule:evenodd;"
d="M 118.8300,103.9000
118.8300,102.1000
120.6300,102.1000
120.6300,103.9000
Z" /> 
<circle cx="122.2700" cy="103.0000" r="0.9000" /> 
<circle cx="70.9200" cy="71.5000" r="0.8000" /> 
<circle cx="55.6800" cy="71.5000" r="0.8000" /> 
<circle cx="125.3900" cy="61.9400" r="0.9500" /> 
<circle cx="125.7150" cy="76.1650" r="0.9500" /> 
<circle cx="148.5650" cy="61.9150" r="0.9500" /> 
<circle cx="148.5150" cy="65.0400" r="0.9500" /> 
<circle cx="148.6150" cy="72.4650" r="0.9500" /> 
<circle cx="148.6150" cy="75.9400" r="0.9500" /> 
<circle cx="192.6400" cy="70.6741" r="0.7800" /> 
<circle cx="192.6400" cy="63.0541" r="0.7800" /> 
<circle cx="192.6400" cy="65.5941" r="0.7800" /> 
<circle cx="191.8000" cy="77.0793" r="2.1080" /> 
<circle cx="161.3000" cy="77.0793" r="2.1080" /> 
<circle cx="161.3000" cy="56.7393" r="2.1080" /> 
<circle cx="191.8000" cy="56.7393" r="2.1080" /> 
<circle cx="192.6400" cy="68.1341" r="0.7800" /> 
<circle cx="212.6500" cy="127.1700" r="0.9525" /> 
<circle cx="225.3500" cy="127.1700" r="0.9525" /> 
<circle cx="210.1100" cy="127.1700" r="0.9525" /> 
<circle cx="222.8100" cy="127.1700" r="0.9525" /> 
<circle cx="220.2700" cy="127.1700" r="0.9525" /> 
<circle cx="227.8900" cy="127.1700" r="0.9525" /> 
<circle cx="215.1900" cy="127.1700" r="0.9525" /> 
<circle cx="217.7300" cy="127.1700" r="0.9525" /> 
<circle cx="113.1200" cy="110.0000" r="0.8000" /> 
<circle cx="97.8800" cy="110.0000" r="0.8000" /> 
<circle cx="113.5000" cy="93.5000" r="0.8000" /> 
<circle cx="98.2600" cy="93.5000" r="0.8000" /> 
<path style="fill:#C83434; fill-opacity:1.0000; stroke:none;fill-rule:evenodd;"
d="M 73.8000,68.2350
72.1000,68.2350
72.1000,66.5350
73.8000,66.5350
Z" /> 
<circle cx="75.4900" cy="67.3850" r="0.8500" /> 
<circle cx="78.0300" cy="67.3850" r="0.8500" /> 
<circle cx="80.5700" cy="67.3850" r="0.8500" /> 
<circle cx="83.1100" cy="67.3850" r="0.8500" /> 
<circle cx="85.6500" cy="67.3850" r="0.8500" /> 
<circle cx="70.9200" cy="76.5000" r="0.8000" /> 
<circle cx="55.6800" cy="76.5000" r="0.8000" /> 
<path style="fill:#C83434; fill-opacity:1.0000; stroke:none;fill-rule:evenodd;"
d="M 95.5000,85.0000
95.6070,85.0156
95.7179,85.0698
95.8052,85.1571
95.8594,85.2680
95.8750,85.3750
95.8750,87.6250
95.8594,87.7320
95.8052,87.8429
95.7179,87.9302
95.6070,87.9844
95.5000,88.0000
91.5000,88.0000
91.3930,87.9844
91.2821,87.9302
91.1948,87.8429
91.1406,87.7320
91.1250,87.6250
91.1250,85.3750
91.1406,85.2680
91.1948,85.1571
91.2821,85.0698
91.3930,85.0156
91.5000,85.0000
Z" /> 
<path style="fill:#C83434; fill-opacity:1.0000; stroke:none;fill-rule:evenodd;"
d="M 95.5000,76.5000
95.6070,76.5156
95.7179,76.5698
95.8052,76.6571
95.8594,76.7680
95.8750,76.8750
95.8750,79.1250
95.8594,79.2320
95.8052,79.3429
95.7179,79.4302
95.6070,79.4844
95.5000,79.5000
91.5000,79.5000
91.3930,79.4844
91.2821,79.4302
91.1948,79.3429
91.1406,79.2320
91.1250,79.1250
91.1250,76.8750
91.1406,76.7680
91.1948,76.6571
91.2821,76.5698
91.3930,76.5156
91.5000,76.5000
Z" /> 
<circle cx="137.9779" cy="93.6890" r="0.9500" /> 
<circle cx="135.4379" cy="93.6890" r="0.9119" /> 
<circle cx="137.9779" cy="117.1490" r="0.9500" /> 
<circle cx="135.4379" cy="117.1490" r="0.9500" /> 
<circle cx="97.7600" cy="103.0000" r="0.8000" /> 
<circle cx="113.0000" cy="103.0000" r="0.8000" /> 
<path style="fill:#C83434; fill-opacity:1.0000; stroke:none;fill-rule:evenodd;"
d="M 99.6400,76.4120
98.0400,76.4120
98.0400,74.8120
99.6400,74.8120
Z" /> 
<path style="fill:#C83434; fill-opacity:1.0000; stroke:none;fill-rule:evenodd;"
d="M 99.6400,73.8720
98.0400,73.8720
98.0400,72.2720
99.6400,72.2720
Z" /> 
<circle cx="98.8146" cy="64.8170" r="0.8000" /> 
<circle cx="98.8400" cy="62.2770" r="0.8000" /> 
<path style="fill:#C83434; fill-opacity:1.0000; stroke:none;fill-rule:evenodd;"
d="M 118.4360,73.9990
116.8360,73.9990
116.8360,72.3990
118.4360,72.3990
Z" /> 
<path style="fill:#C83434; fill-opacity:1.0000; stroke:none;fill-rule:evenodd;"
d="M 118.4360,76.5390
116.8360,76.5390
116.8360,74.9390
118.4360,74.9390
Z" /> 
<circle cx="117.7376" cy="64.8170" r="0.8000" /> 
<circle cx="117.7630" cy="62.2770" r="0.8000" /> 
<circle cx="161.1000" cy="95.2250" r="1.1250" /> 
<circle cx="153.9000" cy="95.2250" r="1.1250" /> 
<circle cx="161.1000" cy="126.7750" r="1.1250" /> 
<circle cx="153.9000" cy="126.7750" r="1.1250" /> 
<path style="fill:#C83434; fill-opacity:1.0000; stroke:none;fill-rule:evenodd;"
d="M 119.2050,113.6800
119.2050,112.1800
120.2550,112.1800
120.2550,113.6800
Z" /> 
</g>
<g style="fill:none; 
stroke:#C83434; stroke-width:1.0500; stroke-opacity:1; 
stroke-linecap:round; stroke-linejoin:round;">
<path d="M121.0000 112.7050
L121.0000 113.1550
" />
<path d="M122.2700 112.7050
L122.2700 113.1550
" />
</g>
<g style="fill:#C83434; fill-opacity:1.0000; stroke:none;">
<circle cx="75.8800" cy="71.5000" r="0.8000" /> 
<circle cx="91.1200" cy="71.5000" r="0.8000" /> 
<circle cx="220.7000" cy="77.2300" r="0.9500" /> 
<circle cx="208.0000" cy="77.2300" r="0.9500" /> 
<circle cx="210.5400" cy="77.2300" r="0.9500" /> 
<circle cx="223.2400" cy="77.2300" r="0.9500" /> 
<circle cx="213.0800" cy="77.2300" r="0.9500" /> 
<circle cx="215.6200" cy="77.2300" r="0.9500" /> 
<circle cx="218.1600" cy="77.2300" r="0.9500" /> 
<circle cx="213.6050" cy="115.2000" r="0.7040" /> 
<path style="fill:#C83434; fill-opacity:1.0000; stroke:none;fill-rule:evenodd;"
d="M 186.3690,115.9040
184.9610,115.9040
184.9610,114.4960
186.3690,114.4960
Z" /> 
<circle cx="188.2050" cy="115.2000" r="0.7040" /> 
<circle cx="190.7450" cy="115.2000" r="0.7040" /> 
<circle cx="193.2850" cy="115.2000" r="0.7040" /> 
<circle cx="195.8250" cy="115.2000" r="0.7040" /> 
<circle cx="198.3650" cy="115.2000" r="0.7040" /> 
<circle cx="200.9050" cy="115.2000" r="0.7040" /> 
<circle cx="203.4450" cy="115.2000" r="0.7040" /> 
<circle cx="205.9850" cy="115.2000" r="0.7040" /> 
<circle cx="208.5250" cy="115.2000" r="0.7040" /> 
<circle cx="211.0650" cy="115.2000" r="0.7040" /> 
<circle cx="216.1450" cy="115.2000" r="0.7040" /> 
<circle cx="218.6850" cy="115.2000" r="0.7040" /> 
<circle cx="221.2250" cy="115.2000" r="0.7040" /> 
<circle cx="223.7650" cy="115.2000" r="0.7040" /> 
<circle cx="226.3050" cy="115.2000" r="0.7040" /> 
<circle cx="228.8450" cy="115.2000" r="0.7040" /> 
<circle cx="231.3850" cy="115.2000" r="0.7040" /> 
<circle cx="185.6650" cy="89.8000" r="0.7040" /> 
<circle cx="188.2050" cy="89.8000" r="0.7040" /> 
<circle cx="193.2850" cy="89.8000" r="0.7040" /> 
<circle cx="195.8250" cy="89.8000" r="0.7040" /> 
<circle cx="198.3650" cy="89.8000" r="0.7040" /> 
<circle cx="200.9050" cy="89.8000" r="0.7040" /> 
<circle cx="203.4450" cy="89.8000" r="0.7040" /> 
<circle cx="205.9850" cy="89.8000" r="0.7040" /> 
<circle cx="208.5250" cy="89.8000" r="0.7040" /> 
<circle cx="211.0650" cy="89.8000" r="0.7040" /> 
<circle cx="213.6050" cy="89.8000" r="0.7040" /> 
<circle cx="216.1450" cy="89.8000" r="0.7040" /> 
<circle cx="218.6850" cy="89.8000" r="0.7040" /> 
<circle cx="221.2250" cy="89.8000" r="0.7040" /> 
<circle cx="223.7650" cy="89.8000" r="0.7040" /> 
<circle cx="226.3050" cy="89.8000" r="0.7040" /> 
<circle cx="228.8450" cy="89.8000" r="0.7040" /> 
<circle cx="231.3850" cy="89.8000" r="0.7040" /> 
<circle cx="190.7450" cy="89.8000" r="0.7040" /> 
<circle cx="188.5000" cy="125.2200" r="0.9500" /> 
<circle cx="191.0400" cy="125.2200" r="0.9500" /> 
<circle cx="185.9600" cy="125.2200" r="0.9500" /> 
<circle cx="180.8800" cy="125.2200" r="0.9500" /> 
<circle cx="193.5800" cy="125.2200" r="0.9500" /> 
<circle cx="183.4200" cy="125.2200" r="0.9500" /> 
<circle cx="196.1200" cy="125.2200" r="0.9500" /> 
<path style="fill:#C83434; fill-opacity:1.0000; stroke:none;fill-rule:evenodd;"
d="M 84.9000,105.8750
84.9190,105.7793
84.9732,105.6982
85.0543,105.6440
85.1500,105.6250
85.8500,105.6250
85.9457,105.6440
86.0268,105.6982
86.0810,105.7793
86.1000,105.8750
86.1000,107.1250
86.0810,107.2207
86.0268,107.3018
85.9457,107.3560
85.8500,107.3750
85.1500,107.3750
85.0543,107.3560
84.9732,107.3018
84.9190,107.2207
84.9000,107.1250
Z" /> 
</g>
<g style="fill:none; 
stroke:#C83434; stroke-width:1.2000; stroke-opacity:1; 
stroke-linecap:round; stroke-linejoin:round;">
<path d="M87.5000 106.2250
L87.5000 106.7750
" />
<path style="fill:#C83434; fill-opacity:1.0000; stroke:none;fill-rule:evenodd;"
d="M 81.3500,80.2000
81.9500,83.8000
83.0500,83.8000
83.6500,80.2000
Z" /> 
<path style="fill:#C83434; fill-opacity:1.0000; stroke:none;fill-rule:evenodd;"
d="M 83.6500,89.6000
83.0500,86.0000
81.9500,86.0000
81.3500,89.6000
Z" /> 
</g>
<g style="fill:#C83434; fill-opacity:1.0000; stroke:none;">
<circle cx="228.0000" cy="123.5000" r="0.3000" /> 
<circle cx="227.5000" cy="117.5000" r="0.3000" /> 
<circle cx="71.0000" cy="80.0000" r="0.3000" /> 
<circle cx="136.5000" cy="80.5000" r="0.3000" /> 
<circle cx="177.5904" cy="127.5904" r="0.3000" /> 
<circle cx="172.5000" cy="127.5000" r="0.3000" /> 
<circle cx="201.0000" cy="95.1000" r="0.3000" /> 
<circle cx="201.0000" cy="93.0000" r="0.3000" /> 
<circle cx="199.4000" cy="76.5000" r="0.3000" /> 
<circle cx="202.5000" cy="76.4000" r="0.3000" /> 
<circle cx="136.5000" cy="76.0000" r="0.3000" /> 
<circle cx="71.0000" cy="82.5000" r="0.3000" /> 
<circle cx="138.5000" cy="79.2000" r="0.3000" /> 
<circle cx="213.0000" cy="82.5000" r="0.3000" /> 
<circle cx="218.0000" cy="82.5000" r="0.3000" /> 
<circle cx="172.5000" cy="128.5000" r="0.3000" /> 
<circle cx="178.0046" cy="128.5904" r="0.3000" /> 
<circle cx="192.0000" cy="90.5000" r="0.3000" /> 
<circle cx="191.8482" cy="87.8482" r="0.3000" /> 
<circle cx="198.0000" cy="138.5000" r="0.9500" /> 
<circle cx="75.0000" cy="65.0000" r="0.3000" /> 
<circle cx="75.0000" cy="64.0000" r="0.3000" /> 
<circle cx="198.0000" cy="141.5000" r="0.9500" /> 
<circle cx="229.4343" cy="122.4000" r="0.3000" /> 
<circle cx="229.4343" cy="122.4000" r="0.3000" /> 
<circle cx="229.0000" cy="118.4000" r="0.3000" /> 
<circle cx="228.2411" cy="118.0000" r="0.3000" /> 
<circle cx="229.5214" cy="123.1953" r="0.3000" /> 
<circle cx="195.5000" cy="117.9000" r="0.3000" /> 
<circle cx="207.5000" cy="87.0000" r="0.3000" /> 
<circle cx="218.5000" cy="87.2000" r="0.3000" /> 
<circle cx="215.4736" cy="87.2032" r="0.3000" /> 
<circle cx="217.0000" cy="86.5000" r="0.3000" /> 
<circle cx="214.0000" cy="86.5000" r="0.3000" /> 
<circle cx="215.5450" cy="88.0000" r="0.3000" /> 
<circle cx="218.5000" cy="88.0000" r="0.3000" /> 
<circle cx="224.0000" cy="85.7858" r="0.3000" /> 
<circle cx="232.8324" cy="120.7789" r="0.3000" /> 
<circle cx="181.0000" cy="121.0000" r="0.3000" /> 
<circle cx="200.5743" cy="121.2743" r="0.3000" /> 
</g>
<g style="fill:none; 
stroke:#C83434; stroke-width:0.2000; stroke-opacity:1; 
stroke-linecap:round; stroke-linejoin:round;">
<path d="M200.9050 89.8000
L201.0000 89.8950
" />
</g>
<g style="fill:none; 
stroke:#C83434; stroke-width:1.0000; stroke-opacity:1; 
stroke-linecap:round; stroke-linejoin:round;">
<path d="M96.5750 88.0703
L95.9453 88.7000
" />
</g>
<g style="fill:none; 
stroke:#C83434; stroke-width:0.2000; stroke-opacity:1; 
stroke-linecap:round; stroke-linejoin:round;">
<path d="M70.9200 76.5000
L70.9200 79.9200
" />
</g>
<g style="fill:none; 
stroke:#C83434; stroke-width:1.0000; stroke-opacity:1; 
stroke-linecap:round; stroke-linejoin:round;">
<path d="M153.9000 95.2250
L152.6250 96.5000
" />
<path d="M80.5980 62.2770
L98.8400 62.2770
" />
</g>
<g style="fill:none; 
stroke:#C83434; stroke-width:0.2000; stroke-opacity:1; 
stroke-linecap:round; stroke-linejoin:round;">
<path d="M69.8200 75.4000
L70.9200 76.5000
" />
<path d="M98.8400 62.2770
L117.7630 62.2770
" />
</g>
<g style="fill:none; 
stroke:#C83434; stroke-width:1.0000; stroke-opacity:1; 
stroke-linecap:round; stroke-linejoin:round;">
<path d="M82.5000 96.0000
L85.2500 98.7500
" />
</g>
<g style="fill:none; 
stroke:#C83434; stroke-width:0.2000; stroke-opacity:1; 
stroke-linecap:round; stroke-linejoin:round;">
<path d="M122.2700 112.9300
L122.2700 103.0000
" />
<path d="M71.0000 82.5000
L80.0000 82.5000
" />
</g>
<g style="fill:none; 
stroke:#C83434; stroke-width:0.5000; stroke-opacity:1; 
stroke-linecap:round; stroke-linejoin:round;">
<path d="M136.5000 76.0000
L136.5000 73.0500
" />
</g>
<g style="fill:none; 
stroke:#C83434; stroke-width:0.2000; stroke-opacity:1; 
stroke-linecap:round; stroke-linejoin:round;">
<path d="M206.9623 76.5000
L202.6000 76.5000
" />
</g>
<g style="fill:none; 
stroke:#C83434; stroke-width:1.0000; stroke-opacity:1; 
stroke-linecap:round; stroke-linejoin:round;">
<path d="M82.5000 87.8000
L82.5000 96.0000
" />
</g>
<g style="fill:none; 
stroke:#C83434; stroke-width:0.2000; stroke-opacity:1; 
stroke-linecap:round; stroke-linejoin:round;">
<path d="M177.5904 127.5904
L181.0496 127.5904
" />
</g>
<g style="fill:none; 
stroke:#C83434; stroke-width:1.0000; stroke-opacity:1; 
stroke-linecap:round; stroke-linejoin:round;">
<path d="M101.8029 78.0000
L99.8000 80.0029
" />
</g>
<g style="fill:none; 
stroke:#C83434; stroke-width:0.2000; stroke-opacity:1; 
stroke-linecap:round; stroke-linejoin:round;">
<path d="M225.3500 127.1700
L225.3500 126.1500
" />
<path d="M153.9000 126.7750
L155.3250 125.3500
" />
</g>
<g style="fill:none; 
stroke:#C83434; stroke-width:1.0000; stroke-opacity:1; 
stroke-linecap:round; stroke-linejoin:round;">
<path d="M146.9650 76.3599
L145.3249 78.0000
" />
</g>
<g style="fill:none; 
stroke:#C83434; stroke-width:0.2000; stroke-opacity:1; 
stroke-linecap:round; stroke-linejoin:round;">
<path d="M163.8403 127.5000
L172.5000 127.5000
" />
<path d="M187.7891 90.8040
L187.2010 90.2159
" />
<path d="M210.5400 77.2300
L209.2900 75.9800
" />
</g>
<g style="fill:none; 
stroke:#C83434; stroke-width:1.0000; stroke-opacity:1; 
stroke-linecap:round; stroke-linejoin:round;">
<path d="M99.5000 85.0000
L96.5750 87.9250
" />
</g>
<g style="fill:none; 
stroke:#C83434; stroke-width:0.2000; stroke-opacity:1; 
stroke-linecap:round; stroke-linejoin:round;">
<path d="M210.5400 77.2300
L211.7900 75.9800
" />
<path d="M147.0275 66.5275
L147.0275 66.5125
" />
<path d="M70.4644 70.4000
L69.8200 71.0444
" />
<path d="M192.9393 95.1000
L188.6433 90.8040
" />
<path d="M82.5000 85.0000
L82.5000 87.8000
" />
</g>
<g style="fill:none; 
stroke:#C83434; stroke-width:1.0000; stroke-opacity:1; 
stroke-linecap:round; stroke-linejoin:round;">
<path d="M147.0275 66.5125
L148.5000 65.0400
" />
</g>
<g style="fill:none; 
stroke:#C83434; stroke-width:0.2000; stroke-opacity:1; 
stroke-linecap:round; stroke-linejoin:round;">
<path d="M227.5000 116.5450
L228.8450 115.2000
" />
<path d="M209.2900 75.9800
L207.4822 75.9800
" />
</g>
<g style="fill:none; 
stroke:#C83434; stroke-width:0.5000; stroke-opacity:1; 
stroke-linecap:round; stroke-linejoin:round;">
<path d="M136.5000 80.5000
L136.5000 93.0000
" />
</g>
<g style="fill:none; 
stroke:#C83434; stroke-width:0.2000; stroke-opacity:1; 
stroke-linecap:round; stroke-linejoin:round;">
<path d="M227.8410 114.1960
L228.8450 115.2000
" />
<path d="M217.4850 96.4850
L216.1000 95.1000
" />
</g>
<g style="fill:none; 
stroke:#C83434; stroke-width:1.0000; stroke-opacity:1; 
stroke-linecap:round; stroke-linejoin:round;">
<path d="M146.9650 75.2566
L146.9650 76.3599
" />
</g>
<g style="fill:none; 
stroke:#C83434; stroke-width:0.2000; stroke-opacity:1; 
stroke-linecap:round; stroke-linejoin:round;">
<path d="M122.5000 94.0000
L122.5000 102.7700
" />
<path d="M210.5400 77.2300
L210.2700 77.5000
" />
<path d="M199.4000 76.5000
L199.6000 76.3000
" />
<path d="M72.4750 70.4000
L70.4644 70.4000
" />
</g>
<g style="fill:none; 
stroke:#C83434; stroke-width:1.0000; stroke-opacity:1; 
stroke-linecap:round; stroke-linejoin:round;">
<path d="M95.8000 88.7000
L85.7500 98.7500
" />
</g>
<g style="fill:none; 
stroke:#C83434; stroke-width:0.2000; stroke-opacity:1; 
stroke-linecap:round; stroke-linejoin:round;">
<path d="M194.5000 68.0000
L192.6400 69.8600
" />
</g>
<g style="fill:none; 
stroke:#C83434; stroke-width:1.0000; stroke-opacity:1; 
stroke-linecap:round; stroke-linejoin:round;">
<path d="M117.7630 62.2770
L125.0530 62.2770
" />
</g>
<g style="fill:none; 
stroke:#C83434; stroke-width:0.2000; stroke-opacity:1; 
stroke-linecap:round; stroke-linejoin:round;">
<path d="M196.3686 68.0000
L194.5000 68.0000
" />
<path d="M186.8000 89.8000
L185.6650 89.8000
" />
<path d="M218.6850 115.2000
L219.6890 114.1960
" />
<path d="M148.5650 61.9150
L148.5650 64.9900
" />
<path d="M80.0000 82.5000
L82.5000 85.0000
" />
<path d="M78.0300 67.3850
L75.4900 67.3850
" />
<path d="M201.0000 89.8950
L201.0000 93.0000
" />
<path d="M135.4379 93.6890
L122.8110 93.6890
" />
<path d="M207.4822 75.9800
L206.9623 76.5000
" />
</g>
<g style="fill:none; 
stroke:#C83434; stroke-width:1.0000; stroke-opacity:1; 
stroke-linecap:round; stroke-linejoin:round;">
<path d="M138.2489 96.5000
L135.4379 93.6890
" />
<path d="M85.7500 98.7500
L85.2500 98.7500
" />
</g>
<g style="fill:none; 
stroke:#C83434; stroke-width:0.2000; stroke-opacity:1; 
stroke-linecap:round; stroke-linejoin:round;">
<path d="M72.0000 106.5000
L85.5000 106.5000
" />
</g>
<g style="fill:none; 
stroke:#C83434; stroke-width:1.0000; stroke-opacity:1; 
stroke-linecap:round; stroke-linejoin:round;">
<path d="M75.4900 67.3850
L80.5980 62.2770
" />
</g>
<g style="fill:none; 
stroke:#C83434; stroke-width:0.2000; stroke-opacity:1; 
stroke-linecap:round; stroke-linejoin:round;">
<path d="M211.7900 75.9800
L219.4500 75.9800
" />
<path d="M225.3500 126.1500
L228.0000 123.5000
" />
<path d="M187.2010 90.2159
L187.2010 90.2010
" />
<path d="M85.2500 98.7500
L85.5000 99.0000
" />
<path d="M70.9200 79.9200
L71.0000 80.0000
" />
<path d="M135.8110 93.6890
L135.4379 93.6890
" />
</g>
<g style="fill:none; 
stroke:#C83434; stroke-width:0.5000; stroke-opacity:1; 
stroke-linecap:round; stroke-linejoin:round;">
<path d="M136.5000 93.0000
L135.8110 93.6890
" />
</g>
<g style="fill:none; 
stroke:#C83434; stroke-width:1.0000; stroke-opacity:1; 
stroke-linecap:round; stroke-linejoin:round;">
<path d="M147.0275 73.2109
L147.0275 75.1941
" />
<path d="M95.9453 88.7000
L95.8000 88.7000
" />
<path d="M147.0275 66.5275
L147.0275 71.7191
" />
</g>
<g style="fill:none; 
stroke:#C83434; stroke-width:0.2000; stroke-opacity:1; 
stroke-linecap:round; stroke-linejoin:round;">
<path d="M223.9000 129.1000
L187.3000 129.1000
" />
</g>
<g style="fill:none; 
stroke:#C83434; stroke-width:0.5000; stroke-opacity:1; 
stroke-linecap:round; stroke-linejoin:round;">
<path d="M136.5000 73.0500
L125.3900 61.9400
" />
</g>
<g style="fill:none; 
stroke:#C83434; stroke-width:0.2000; stroke-opacity:1; 
stroke-linecap:round; stroke-linejoin:round;">
<path d="M199.6000 71.2314
L196.3686 68.0000
" />
<path d="M161.6903 125.3500
L163.8403 127.5000
" />
<path d="M75.4900 67.3850
L72.4750 70.4000
" />
</g>
<g style="fill:none; 
stroke:#C83434; stroke-width:1.0000; stroke-opacity:1; 
stroke-linecap:round; stroke-linejoin:round;">
<path d="M85.5000 106.5000
L85.5000 99.0000
" />
</g>
<g style="fill:none; 
stroke:#C83434; stroke-width:0.2000; stroke-opacity:1; 
stroke-linecap:round; stroke-linejoin:round;">
<path d="M187.3000 129.1000
L183.4200 125.2200
" />
<path d="M192.6400 69.8600
L192.6400 70.6741
" />
</g>
<g style="fill:none; 
stroke:#C83434; stroke-width:1.0000; stroke-opacity:1; 
stroke-linecap:round; stroke-linejoin:round;">
<path d="M96.5750 87.9250
L96.5750 88.0703
" />
<path d="M99.8000 80.0029
L99.8000 84.7000
" />
</g>
<g style="fill:none; 
stroke:#C83434; stroke-width:0.2000; stroke-opacity:1; 
stroke-linecap:round; stroke-linejoin:round;">
<path d="M199.6000 76.3000
L199.6000 71.2314
" />
<path d="M148.5650 64.9900
L148.5150 65.0400
" />
</g>
<g style="fill:none; 
stroke:#C83434; stroke-width:1.0000; stroke-opacity:1; 
stroke-linecap:round; stroke-linejoin:round;">
<path d="M152.6250 96.5000
L138.2489 96.5000
" />
</g>
<g style="fill:none; 
stroke:#C83434; stroke-width:0.2000; stroke-opacity:1; 
stroke-linecap:round; stroke-linejoin:round;">
<path d="M188.6433 90.8040
L187.7891 90.8040
" />
</g>
<g style="fill:none; 
stroke:#C83434; stroke-width:1.0000; stroke-opacity:1; 
stroke-linecap:round; stroke-linejoin:round;">
<path d="M146.9650 71.7816
L146.9650 73.1484
" />
<path d="M145.3249 78.0000
L101.8029 78.0000
" />
</g>
<g style="fill:none; 
stroke:#C83434; stroke-width:0.2000; stroke-opacity:1; 
stroke-linecap:round; stroke-linejoin:round;">
<path d="M122.8110 93.6890
L122.5000 94.0000
" />
<path d="M181.0496 127.5904
L183.4200 125.2200
" />
<path d="M225.3500 127.1700
L225.3500 127.6500
" />
<path d="M147.0275 66.5275
L147.0000 66.5550
" />
</g>
<g style="fill:none; 
stroke:#C83434; stroke-width:1.0000; stroke-opacity:1; 
stroke-linecap:round; stroke-linejoin:round;">
<path d="M147.0275 75.1941
L146.9650 75.2566
" />
</g>
<g style="fill:none; 
stroke:#C83434; stroke-width:0.2000; stroke-opacity:1; 
stroke-linecap:round; stroke-linejoin:round;">
<path d="M85.5000 99.0000
L99.5000 85.0000
" />
<path d="M219.6890 114.1960
L227.8410 114.1960
" />
<path d="M155.3250 125.3500
L161.6903 125.3500
" />
<path d="M227.5000 117.5000
L227.5000 116.5450
" />
<path d="M218.6850 115.2000
L217.4850 114.0000
" />
<path d="M216.1000 95.1000
L192.9393 95.1000
" />
</g>
<g style="fill:none; 
stroke:#C83434; stroke-width:1.0000; stroke-opacity:1; 
stroke-linecap:round; stroke-linejoin:round;">
<path d="M99.8000 84.7000
L99.5000 85.0000
" />
</g>
<g style="fill:none; 
stroke:#C83434; stroke-width:0.2000; stroke-opacity:1; 
stroke-linecap:round; stroke-linejoin:round;">
<path d="M69.8200 71.0444
L69.8200 75.4000
" />
<path d="M122.5000 102.7700
L122.2700 103.0000
" />
<path d="M202.6000 76.5000
L202.5000 76.4000
" />
<path d="M217.4850 114.0000
L217.4850 96.4850
" />
<path d="M219.4500 75.9800
L220.7000 77.2300
" />
</g>
<g style="fill:none; 
stroke:#C83434; stroke-width:1.0000; stroke-opacity:1; 
stroke-linecap:round; stroke-linejoin:round;">
<path d="M146.9650 73.1484
L147.0275 73.2109
" />
<path d="M147.0275 71.7191
L146.9650 71.7816
" />
</g>
<g style="fill:none; 
stroke:#C83434; stroke-width:0.2000; stroke-opacity:1; 
stroke-linecap:round; stroke-linejoin:round;">
<path d="M125.0530 62.2770
L125.3900 61.9400
" />
<path d="M225.3500 127.6500
L223.9000 129.1000
" />
<path d="M187.2010 90.2010
L186.8000 89.8000
" />
<path d="M119.9600 94.0000
L114.0000 94.0000
" />
<path d="M114.0000 94.0000
L113.5000 93.5000
" />
<path d="M119.7300 103.0000
L113.0000 103.0000
" />
<path d="M93.5000 74.0000
L93.0000 74.5000
" />
<path d="M73.9200 74.5000
L70.9200 71.5000
" />
<path d="M92.8850 67.3850
L93.5000 68.0000
" />
<path d="M93.5000 68.0000
L93.5000 74.0000
" />
<path d="M93.0000 74.5000
L73.9200 74.5000
" />
<path d="M85.6500 67.3850
L92.8850 67.3850
" />
<path d="M125.2890 75.7390
L125.7150 76.1650
" />
</g>
<g style="fill:none; 
stroke:#C83434; stroke-width:1.0000; stroke-opacity:1; 
stroke-linecap:round; stroke-linejoin:round;">
<path d="M117.6360 75.7390
L125.2890 75.7390
" />
<path d="M137.9779 93.6890
L137.9779 79.7221
" />
<path d="M87.5000 99.0000
L101.0000 85.5000
" />
<path d="M145.8220 79.2000
L148.6150 76.4070
" />
</g>
<g style="fill:none; 
stroke:#C83434; stroke-width:0.2000; stroke-opacity:1; 
stroke-linecap:round; stroke-linejoin:round;">
<path d="M137.9779 79.7221
L138.5000 79.2000
" />
</g>
<g style="fill:none; 
stroke:#C83434; stroke-width:1.0000; stroke-opacity:1; 
stroke-linecap:round; stroke-linejoin:round;">
<path d="M159.5640 93.6890
L161.1000 95.2250
" />
<path d="M148.6150 76.4070
L148.6150 75.9400
" />
</g>
<g style="fill:none; 
stroke:#C83434; stroke-width:0.2000; stroke-opacity:1; 
stroke-linecap:round; stroke-linejoin:round;">
<path d="M161.1000 95.2250
L161.1000 96.4000
" />
</g>
<g style="fill:none; 
stroke:#C83434; stroke-width:1.0000; stroke-opacity:1; 
stroke-linecap:round; stroke-linejoin:round;">
<path d="M138.6669 93.0000
L137.9779 93.6890
" />
</g>
<g style="fill:none; 
stroke:#C83434; stroke-width:0.2000; stroke-opacity:1; 
stroke-linecap:round; stroke-linejoin:round;">
<path d="M137.9779 93.6890
L138.0000 93.6669
" />
</g>
<g style="fill:none; 
stroke:#C83434; stroke-width:1.0000; stroke-opacity:1; 
stroke-linecap:round; stroke-linejoin:round;">
<path d="M87.5000 106.5000
L87.5000 99.0000
" />
<path d="M158.8750 93.0000
L138.6669 93.0000
" />
</g>
<g style="fill:none; 
stroke:#C83434; stroke-width:0.2000; stroke-opacity:1; 
stroke-linecap:round; stroke-linejoin:round;">
<path d="M148.6150 78.3850
L148.6150 72.4650
" />
</g>
<g style="fill:none; 
stroke:#C83434; stroke-width:1.0000; stroke-opacity:1; 
stroke-linecap:round; stroke-linejoin:round;">
<path d="M138.5000 79.2000
L145.8220 79.2000
" />
<path d="M101.0000 85.5000
L101.0000 80.5000
" />
<path d="M101.0000 80.5000
L102.3000 79.2000
" />
<path d="M102.3000 79.2000
L138.5000 79.2000
" />
<path d="M159.5640 93.6890
L158.8750 93.0000
" />
<path d="M233.3083 83.5858
L233.0858 83.5858
" />
<path d="M210.5000 82.5000
L208.0000 80.0000
" />
<path d="M206.7300 78.5000
L203.0000 78.5000
" />
<path d="M233.9284 123.4000
L235.5000 121.8284
" />
</g>
<g style="fill:none; 
stroke:#C83434; stroke-width:0.2000; stroke-opacity:1; 
stroke-linecap:round; stroke-linejoin:round;">
<path d="M208.0000 77.2300
L208.7300 77.2300
" />
</g>
<g style="fill:none; 
stroke:#C83434; stroke-width:1.0000; stroke-opacity:1; 
stroke-linecap:round; stroke-linejoin:round;">
<path d="M228.3300 127.1700
L232.1000 123.4000
" />
<path d="M233.0000 83.5000
L225.5000 83.5000
" />
<path d="M235.5000 121.8284
L235.5000 121.8157
" />
<path d="M224.5000 82.5000
L218.0000 82.5000
" />
<path d="M208.0000 80.0000
L208.0000 77.2300
" />
<path d="M225.5000 83.5000
L224.5000 82.5000
" />
<path d="M201.5000 77.0000
L201.5000 70.5000
" />
<path d="M178.0046 129.5046
L180.0000 131.5000
" />
<path d="M238.1000 88.3775
L233.3083 83.5858
" />
<path d="M232.1000 123.4000
L233.9284 123.4000
" />
<path d="M194.0541 63.0541
L192.6400 63.0541
" />
<path d="M227.8900 127.1700
L228.3300 127.1700
" />
<path d="M235.5000 121.8157
L238.1000 119.2157
" />
<path d="M203.0000 78.5000
L201.5000 77.0000
" />
<path d="M238.1000 119.2157
L238.1000 88.3775
" />
<path d="M178.0046 128.5904
L178.0046 129.5046
" />
<path d="M213.0000 82.5000
L210.5000 82.5000
" />
<path d="M208.0000 77.2300
L206.7300 78.5000
" />
<path d="M201.5000 70.5000
L194.0541 63.0541
" />
<path d="M233.0858 83.5858
L233.0000 83.5000
" />
<path d="M180.0000 131.5000
L223.5600 131.5000
" />
<path d="M172.5000 128.5000
L162.8250 128.5000
" />
<path d="M223.5600 131.5000
L227.8900 127.1700
" />
<path d="M162.8250 128.5000
L161.1000 126.7750
" />
</g>
<g style="fill:none; 
stroke:#C83434; stroke-width:0.2000; stroke-opacity:1; 
stroke-linecap:round; stroke-linejoin:round;">
<path d="M196.5000 67.0000
L200.4000 70.9000
" />
<path d="M193.0000 87.0000
L192.6965 87.0000
" />
<path d="M194.0000 67.0000
L196.5000 67.0000
" />
<path d="M195.0000 85.0000
L193.0000 87.0000
" />
<path d="M192.6965 87.0000
L191.8482 87.8482
" />
<path d="M193.1364 93.6000
L210.5300 93.6000
" />
<path d="M200.0657 85.0000
L195.0000 85.0000
" />
<path d="M200.1657 84.9000
L199.9657 84.9000
" />
<path d="M210.5300 93.6000
L211.0650 93.0650
" />
<path d="M200.4000 70.9000
L200.4000 84.6657
" />
<path d="M192.6400 65.6400
L194.0000 67.0000
" />
<path d="M192.6400 65.5941
L192.6400 65.6400
" />
<path d="M192.0000 90.5000
L192.0000 92.4636
" />
<path d="M192.0000 92.4636
L193.1364 93.6000
" />
<path d="M211.0650 93.0650
L211.0650 89.8000
" />
<path d="M200.4000 84.6657
L200.1657 84.9000
" />
<path d="M199.9657 84.9000
L200.0657 85.0000
" />
<path d="M192.5000 84.5000
L189.0000 88.0000
" />
<path d="M213.6050 92.3950
L213.6050 89.8000
" />
<path d="M192.6400 68.1341
L193.2741 67.5000
" />
<path d="M196.4343 67.5000
L200.0000 71.0657
" />
<path d="M189.2090 89.3841
L189.2090 90.2159
" />
<path d="M189.0000 88.0000
L189.0000 89.1751
" />
<path d="M189.0000 89.1751
L189.2090 89.3841
" />
<path d="M192.9707 94.0000
L212.0000 94.0000
" />
<path d="M189.1978 90.2271
L192.9707 94.0000
" />
<path d="M212.0000 94.0000
L213.6050 92.3950
" />
<path d="M200.0000 84.5000
L192.5000 84.5000
" />
<path d="M200.0000 71.0657
L200.0000 84.5000
" />
<path d="M189.2090 90.2159
L189.1978 90.2271
" />
<path d="M193.2741 67.5000
L196.4343 67.5000
" />
<path d="M219.9113 85.5000
L219.3113 84.9000
" />
<path d="M224.8142 85.1858
L224.4142 84.7858
" />
<path d="M216.4686 84.9000
L215.7686 85.6000
" />
<path d="M228.1800 121.8000
L233.2657 121.8000
" />
<path d="M215.7686 85.6000
L214.5142 85.6000
" />
<path d="M236.5000 118.0000
L236.5000 89.0402
" />
<path d="M214.5142 85.6000
L214.4142 85.5000
" />
<path d="M233.2657 121.8000
L233.9000 121.1657
" />
<path d="M200.0993 87.5000
L193.0450 87.5000
" />
<path d="M236.5000 89.0402
L232.6456 85.1858
" />
<path d="M214.4142 85.5000
L213.5858 85.5000
" />
<path d="M232.6456 85.1858
L224.8142 85.1858
" />
<path d="M224.4142 84.7858
L223.5858 84.7858
" />
<path d="M213.4858 85.6000
L201.9993 85.6000
" />
<path d="M223.0000 85.5000
L219.9113 85.5000
" />
<path d="M213.5858 85.5000
L213.4858 85.6000
" />
<path d="M233.9000 121.1657
L233.9000 120.6000
" />
<path d="M233.9000 120.6000
L236.5000 118.0000
" />
<path d="M222.8100 127.1700
L228.1800 121.8000
" />
<path d="M219.3113 84.9000
L216.4686 84.9000
" />
<path d="M201.9993 85.6000
L200.0993 87.5000
" />
<path d="M223.0000 85.3716
L223.0000 85.5000
" />
<path d="M193.0450 87.5000
L190.7450 89.8000
" />
<path d="M223.5858 84.7858
L223.0000 85.3716
" />
<path d="M168.1284 135.5686
L181.2971 122.4000
" />
<path d="M182.4000 121.5799
L182.4000 121.2314
" />
<path d="M181.5799 122.4000
L182.4000 121.5799
" />
<path d="M116.9000 114.3000
L119.6000 117.0000
" />
<path d="M72.2000 114.3000
L116.9000 114.3000
" />
<path d="M64.4000 106.5000
L72.2000 114.3000
" />
<path d="M186.3314 117.3000
L203.8850 117.3000
" />
<path d="M119.6000 117.0000
L119.6000 129.1657
" />
<path d="M203.8850 117.3000
L205.9850 115.2000
" />
<path d="M181.2971 122.4000
L181.5799 122.4000
" />
<path d="M182.4000 121.2314
L186.3314 117.3000
" />
<path d="M119.6000 129.1657
L126.0029 135.5686
" />
<path d="M126.0029 135.5686
L168.1284 135.5686
" />
</g>
<g style="fill:none; 
stroke:#C83434; stroke-width:1.0000; stroke-opacity:1; 
stroke-linecap:round; stroke-linejoin:round;">
<path d="M89.5000 82.0000
L93.5000 78.0000
" />
</g>
<g style="fill:none; 
stroke:#C83434; stroke-width:0.2000; stroke-opacity:1; 
stroke-linecap:round; stroke-linejoin:round;">
<path d="M81.5000 81.0000
L82.5000 82.0000
" />
</g>
<g style="fill:none; 
stroke:#C83434; stroke-width:1.0000; stroke-opacity:1; 
stroke-linecap:round; stroke-linejoin:round;">
<path d="M71.0858 81.5000
L82.0000 81.5000
" />
<path d="M82.5000 82.0000
L89.5000 82.0000
" />
<path d="M72.9500 67.3850
L69.1150 67.3850
" />
<path d="M69.1150 67.3850
L67.6150 68.8850
" />
<path d="M67.6150 78.0292
L71.0858 81.5000
" />
<path d="M67.6150 68.8850
L67.6150 78.0292
" />
<path d="M82.0000 81.5000
L82.5000 82.0000
" />
</g>
<g style="fill:none; 
stroke:#C83434; stroke-width:0.2000; stroke-opacity:1; 
stroke-linecap:round; stroke-linejoin:round;">
<path d="M118.8000 117.3657
L116.5343 115.1000
" />
<path d="M116.5343 115.1000
L71.8686 115.1000
" />
<path d="M54.5800 99.1457
L54.5800 71.0444
" />
<path d="M125.6716 136.3686
L118.8000 129.4971
" />
<path d="M80.5000 71.5000
L75.8800 71.5000
" />
<path d="M81.5000 68.3150
L81.5000 70.5000
" />
<path d="M80.5700 67.3850
L81.5000 68.3150
" />
<path d="M118.8000 129.4971
L118.8000 117.3657
" />
<path d="M65.1686 108.4000
L63.8343 108.4000
" />
<path d="M195.8686 136.3686
L125.6716 136.3686
" />
<path d="M60.6244 65.0000
L75.0000 65.0000
" />
<path d="M71.8686 115.1000
L65.1686 108.4000
" />
<path d="M54.5800 71.0444
L60.6244 65.0000
" />
<path d="M198.0000 138.5000
L195.8686 136.3686
" />
<path d="M63.8343 108.4000
L54.5800 99.1457
" />
<path d="M81.5000 70.5000
L80.5000 71.5000
" />
<path d="M116.3686 115.5000
L118.4000 117.5314
" />
<path d="M75.0000 64.0000
L74.4000 64.6000
" />
<path d="M60.4587 64.6000
L54.1800 70.8787
" />
<path d="M118.4000 129.6627
L125.5059 136.7686
" />
<path d="M196.7500 140.2500
L198.0000 141.5000
" />
<path d="M65.0029 108.8000
L71.7029 115.5000
" />
<path d="M54.1800 70.8787
L54.1800 99.3114
" />
<path d="M54.1800 99.3114
L63.6686 108.8000
" />
<path d="M83.1100 70.1100
L84.5000 71.5000
" />
<path d="M125.5059 136.7686
L195.7029 136.7686
" />
<path d="M71.7029 115.5000
L116.3686 115.5000
" />
<path d="M84.5000 71.5000
L91.1200 71.5000
" />
<path d="M83.1100 67.3850
L83.1100 70.1100
" />
<path d="M196.7500 137.9822
L196.7500 140.2500
" />
<path d="M195.7029 136.7686
L196.7500 137.8157
" />
<path d="M63.6686 108.8000
L65.0029 108.8000
" />
<path d="M74.4000 64.6000
L60.4587 64.6000
" />
<path d="M118.4000 117.5314
L118.4000 129.6627
" />
<path d="M196.7500 137.8157
L196.7500 137.9822
" />
</g>
<g style="fill:none; 
stroke:#C83434; stroke-width:1.0000; stroke-opacity:1; 
stroke-linecap:round; stroke-linejoin:round;">
<path d="M97.9520 76.5000
L98.8400 75.6120
" />
</g>
<g style="fill:none; 
stroke:#C83434; stroke-width:0.2000; stroke-opacity:1; 
stroke-linecap:round; stroke-linejoin:round;">
<path d="M99.0000 75.7720
L98.8400 75.6120
" />
</g>
<g style="fill:none; 
stroke:#C83434; stroke-width:1.0000; stroke-opacity:1; 
stroke-linecap:round; stroke-linejoin:round;">
<path d="M97.9520 76.5480
L97.9520 76.5000
" />
<path d="M97.5000 77.0000
L97.9520 76.5480
" />
<path d="M97.5000 82.5000
L97.5000 77.0000
" />
<path d="M93.5000 86.5000
L97.5000 82.5000
" />
</g>
<g style="fill:none; 
stroke:#C83434; stroke-width:0.2000; stroke-opacity:1; 
stroke-linecap:round; stroke-linejoin:round;">
<path d="M219.4770 84.5000
L220.0770 85.1000
" />
<path d="M236.9000 118.1657
L234.3000 120.7657
" />
<path d="M215.6200 83.6200
L216.5000 84.5000
" />
<path d="M234.3000 121.3314
L233.4314 122.2000
" />
<path d="M213.0343 118.6000
L228.8000 118.6000
" />
<path d="M236.9000 88.8745
L236.9000 118.1657
" />
<path d="M232.8113 84.7858
L236.9000 88.8745
" />
<path d="M215.6200 77.2300
L215.6200 83.6200
" />
<path d="M209.9593 115.5250
L213.0343 118.6000
" />
<path d="M223.4201 84.3858
L224.6000 84.3858
" />
<path d="M224.6000 84.3858
L225.0000 84.7858
" />
<path d="M228.8000 118.6000
L229.0000 118.4000
" />
<path d="M220.0770 85.1000
L222.7059 85.1000
" />
<path d="M225.0000 84.7858
L232.8113 84.7858
" />
<path d="M230.2343 122.2000
L230.0343 122.4000
" />
<path d="M216.5000 84.5000
L219.4770 84.5000
" />
<path d="M208.5250 115.5250
L209.9593 115.5250
" />
<path d="M233.4314 122.2000
L230.2343 122.2000
" />
<path d="M234.3000 120.7657
L234.3000 121.3314
" />
<path d="M222.7059 85.1000
L223.4201 84.3858
" />
<path d="M230.0343 122.4000
L229.4343 122.4000
" />
<path d="M208.5250 115.2000
L208.5250 115.5250
" />
<path d="M224.7657 83.9858
L223.2544 83.9858
" />
<path d="M225.1657 84.3858
L224.7657 83.9858
" />
<path d="M216.0200 83.4543
L216.0200 78.9800
" />
<path d="M213.2000 118.2000
L228.0411 118.2000
" />
<path d="M234.7000 121.4971
L234.7000 120.9314
" />
<path d="M220.2426 84.7000
L219.6426 84.1000
" />
<path d="M219.6426 84.1000
L216.6657 84.1000
" />
<path d="M211.0650 116.0650
L213.2000 118.2000
" />
<path d="M229.8047 123.1953
L230.4000 122.6000
" />
<path d="M222.5402 84.7000
L220.2426 84.7000
" />
<path d="M229.5214 123.1953
L229.8047 123.1953
" />
<path d="M223.2544 83.9858
L222.5402 84.7000
" />
<path d="M233.5971 122.6000
L234.7000 121.4971
" />
<path d="M217.7700 77.2300
L218.1600 77.2300
" />
<path d="M216.0200 78.9800
L217.7700 77.2300
" />
<path d="M237.3000 118.3314
L237.3000 88.7088
" />
<path d="M232.9770 84.3858
L225.1657 84.3858
" />
<path d="M237.3000 88.7088
L232.9770 84.3858
" />
<path d="M211.0650 115.2000
L211.0650 116.0650
" />
<path d="M230.4000 122.6000
L233.5971 122.6000
" />
<path d="M228.0411 118.2000
L228.2411 118.0000
" />
<path d="M216.6657 84.1000
L216.0200 83.4543
" />
<path d="M234.7000 120.9314
L237.3000 118.3314
" />
<path d="M186.4971 117.7000
L195.3000 117.7000
" />
<path d="M70.9172 113.5828
L71.0000 113.6657
" />
<path d="M116.7000 114.7000
L117.0000 115.0000
" />
<path d="M64.0000 108.0000
L65.3343 108.0000
" />
<path d="M181.7456 122.8000
L182.8000 121.7456
" />
<path d="M55.6800 76.5000
L55.0000 77.1800
" />
<path d="M55.0000 77.1800
L55.0000 99.0000
" />
<path d="M119.2000 117.2000
L119.2000 129.3314
" />
<path d="M55.6800 71.5000
L55.6800 76.5000
" />
<path d="M182.8000 121.7456
L182.8000 121.3971
" />
<path d="M55.0000 99.0000
L64.0000 108.0000
" />
<path d="M70.9172 113.5828
L72.0343 114.7000
" />
<path d="M65.3343 108.0000
L70.9172 113.5828
" />
<path d="M125.8373 135.9686
L168.5314 135.9686
" />
<path d="M72.0343 114.7000
L116.7000 114.7000
" />
<path d="M168.5314 135.9686
L168.5314 135.8009
" />
<path d="M181.5323 122.8000
L181.7456 122.8000
" />
<path d="M119.2000 129.3314
L125.8373 135.9686
" />
<path d="M195.3000 117.7000
L195.5000 117.9000
" />
<path d="M117.0000 115.0000
L119.2000 117.2000
" />
<path d="M182.8000 121.3971
L186.4971 117.7000
" />
<path d="M168.5314 135.8009
L181.5323 122.8000
" />
<path d="M120.4000 116.6686
L117.2314 113.5000
" />
<path d="M180.9657 121.6000
L167.7971 134.7686
" />
<path d="M97.5000 113.5000
L95.0000 111.0000
" />
<path d="M126.3343 134.7686
L120.4000 128.8343
" />
<path d="M117.2314 113.5000
L97.5000 113.5000
" />
<path d="M95.0000 111.0000
L95.0000 105.7600
" />
<path d="M200.9050 115.2000
L199.6050 116.5000
" />
<path d="M95.0000 105.7600
L97.7600 103.0000
" />
<path d="M181.2485 121.6000
L180.9657 121.6000
" />
<path d="M181.6000 120.9000
L181.6000 121.2485
" />
<path d="M186.0000 116.5000
L181.6000 120.9000
" />
<path d="M120.4000 128.8343
L120.4000 116.6686
" />
<path d="M181.6000 121.2485
L181.2485 121.6000
" />
<path d="M199.6050 116.5000
L186.0000 116.5000
" />
<path d="M167.7971 134.7686
L126.3343 134.7686
" />
<path d="M167.9627 135.1686
L181.1314 122.0000
" />
<path d="M181.4142 122.0000
L182.0000 121.4142
" />
<path d="M98.2600 93.5000
L94.5000 97.2600
" />
<path d="M120.0000 116.8343
L120.0000 129.0000
" />
<path d="M182.0000 121.0657
L186.1657 116.9000
" />
<path d="M201.7450 116.9000
L203.4450 115.2000
" />
<path d="M97.3343 113.9000
L117.0657 113.9000
" />
<path d="M94.5000 111.0657
L97.3343 113.9000
" />
<path d="M94.5000 97.2600
L94.5000 111.0657
" />
<path d="M181.1314 122.0000
L181.4142 122.0000
" />
<path d="M126.1686 135.1686
L167.9627 135.1686
" />
<path d="M120.0000 129.0000
L126.1686 135.1686
" />
<path d="M117.0657 113.9000
L120.0000 116.8343
" />
<path d="M182.0000 121.4142
L182.0000 121.0657
" />
<path d="M186.1657 116.9000
L201.7450 116.9000
" />
<path d="M192.9050 94.5000
L216.0000 94.5000
" />
<path d="M217.6810 86.8190
L218.0000 86.5000
" />
<path d="M231.8314 87.2000
L234.5000 89.8686
" />
<path d="M188.2050 89.8000
L192.9050 94.5000
" />
<path d="M191.0400 124.9600
L191.0400 125.2200
" />
<path d="M234.5000 89.8686
L234.5000 117.1314
" />
<path d="M234.5000 117.1314
L231.8314 119.8000
" />
<path d="M219.3485 87.2000
L231.8314 87.2000
" />
<path d="M216.0000 94.5000
L217.6810 92.8190
" />
<path d="M217.6810 92.8190
L217.6810 86.8190
" />
<path d="M218.6485 86.5000
L219.3485 87.2000
" />
<path d="M231.8314 119.8000
L196.2000 119.8000
" />
<path d="M196.2000 119.8000
L191.0400 124.9600
" />
<path d="M218.0000 86.5000
L218.6485 86.5000
" />
<path d="M213.7515 85.9000
L213.6515 86.0000
" />
<path d="M233.5000 120.3941
L236.1000 117.7941
" />
<path d="M236.1000 89.2059
L232.4799 85.5858
" />
<path d="M233.5000 121.0000
L233.5000 120.3941
" />
<path d="M226.0400 121.4000
L233.1000 121.4000
" />
<path d="M224.2485 85.1858
L223.7515 85.1858
" />
<path d="M220.2700 127.1700
L226.0400 121.4000
" />
<path d="M216.6343 85.3000
L215.9343 86.0000
" />
<path d="M223.7515 85.1858
L223.4000 85.5373
" />
<path d="M236.1000 117.7941
L236.1000 89.2059
" />
<path d="M214.3485 86.0000
L214.2485 85.9000
" />
<path d="M223.4000 85.5373
L223.4000 85.9858
" />
<path d="M232.4799 85.5858
L224.6000 85.5858
" />
<path d="M219.1456 85.3000
L216.6343 85.3000
" />
<path d="M214.2485 85.9000
L213.7515 85.9000
" />
<path d="M224.6000 85.5858
L224.6000 85.5373
" />
<path d="M215.9343 86.0000
L214.3485 86.0000
" />
<path d="M223.4000 85.9858
L219.8314 85.9858
" />
<path d="M233.1000 121.4000
L233.5000 121.0000
" />
<path d="M213.6515 86.0000
L202.1650 86.0000
" />
<path d="M224.6000 85.5373
L224.2485 85.1858
" />
<path d="M202.1650 86.0000
L198.3650 89.8000
" />
<path d="M219.8314 85.9858
L219.1456 85.3000
" />
<path d="M203.4450 89.0550
L205.5000 87.0000
" />
<path d="M218.9485 87.6000
L218.7485 87.4000
" />
<path d="M188.5000 125.2200
L188.5000 125.0000
" />
<path d="M188.5000 125.0000
L194.1000 119.4000
" />
<path d="M203.4450 89.8000
L203.4450 89.0550
" />
<path d="M194.1000 119.4000
L231.6657 119.4000
" />
<path d="M231.6657 119.4000
L234.1000 116.9657
" />
<path d="M234.1000 116.9657
L234.1000 90.0343
" />
<path d="M234.1000 90.0343
L231.6657 87.6000
" />
<path d="M231.6657 87.6000
L218.9485 87.6000
" />
<path d="M218.7485 87.4000
L218.7000 87.4000
" />
<path d="M218.7000 87.4000
L218.5000 87.2000
" />
<path d="M205.5000 87.0000
L207.5000 87.0000
" />
<path d="M217.4000 86.1000
L217.0000 86.5000
" />
<path d="M234.9000 89.7029
L231.9828 86.7858
" />
<path d="M198.3000 120.2000
L231.9971 120.2000
" />
<path d="M193.5800 124.9200
L198.3000 120.2000
" />
<path d="M193.5800 125.2200
L193.5800 124.9200
" />
<path d="M231.9971 120.2000
L234.9000 117.2971
" />
<path d="M205.9850 89.8000
L206.5394 89.8000
" />
<path d="M209.2850 86.5000
L214.0000 86.5000
" />
<path d="M218.8142 86.1000
L217.4000 86.1000
" />
<path d="M205.9850 89.8000
L209.2850 86.5000
" />
<path d="M219.5000 86.7858
L218.8142 86.1000
" />
<path d="M231.9828 86.7858
L219.5000 86.7858
" />
<path d="M234.9000 117.2971
L234.9000 89.7029
" />
<path d="M209.9485 88.0000
L208.5250 89.4235
" />
<path d="M192.0000 119.0000
L185.9600 125.0400
" />
<path d="M208.5250 89.4235
L208.5250 89.8000
" />
<path d="M218.5000 88.0000
L231.5000 88.0000
" />
<path d="M185.9600 125.0400
L185.9600 125.2200
" />
<path d="M231.5000 119.0000
L192.0000 119.0000
" />
<path d="M233.7000 90.2000
L233.7000 116.8000
" />
<path d="M215.5450 88.0000
L209.9485 88.0000
" />
<path d="M231.5000 88.0000
L233.7000 90.2000
" />
<path d="M233.7000 116.8000
L231.5000 119.0000
" />
<path d="M216.1450 89.8000
L216.1450 86.3550
" />
<path d="M232.1627 120.6000
L200.4000 120.6000
" />
<path d="M200.4000 120.6000
L196.1200 124.8800
" />
<path d="M218.9799 85.7000
L219.6657 86.3858
" />
<path d="M216.8000 85.7000
L218.9799 85.7000
" />
<path d="M196.1200 124.8800
L196.1200 125.2200
" />
<path d="M232.1485 86.3858
L235.3000 89.5373
" />
<path d="M232.1627 120.6000
L231.5000 120.6000
" />
<path d="M235.3000 89.5373
L235.3000 117.4627
" />
<path d="M216.1450 86.3550
L216.8000 85.7000
" />
<path d="M219.6657 86.3858
L232.1485 86.3858
" />
<path d="M235.3000 117.4627
L232.1627 120.6000
" />
<path d="M232.8324 120.7789
L232.8324 120.4960
" />
<path d="M120.8000 128.6686
L120.8000 116.5029
" />
<path d="M232.8324 120.4960
L235.7000 117.6284
" />
<path d="M118.5000 110.0000
L113.1200 110.0000
" />
<path d="M235.7000 89.3716
L232.3142 85.9858
" />
<path d="M121.0000 112.9300
L121.0000 112.5000
" />
<path d="M120.8000 116.5029
L121.0000 116.3029
" />
<path d="M232.3142 85.9858
L224.2000 85.9858
" />
<path d="M181.0000 121.0000
L167.6314 134.3686
" />
<path d="M200.8485 121.0000
L232.6113 121.0000
" />
<path d="M126.5000 134.3686
L120.8000 128.6686
" />
<path d="M235.7000 117.6284
L235.7000 89.3716
" />
<path d="M232.6113 121.0000
L232.8324 120.7789
" />
<path d="M121.0000 112.5000
L118.5000 110.0000
" />
<path d="M121.0000 116.3029
L121.0000 112.9300
" />
<path d="M167.6314 134.3686
L126.5000 134.3686
" />
<path d="M224.2000 85.9858
L224.0000 85.7858
" />
<path d="M200.5743 121.2743
L200.8485 121.0000
" />
<path d="M164.0059 127.1000
L172.0000 127.1000
" />
<path d="M100.8100 112.9300
L119.7300 112.9300
" />
<path d="M183.9000 115.2000
L185.6650 115.2000
" />
<path d="M137.9779 119.4779
L143.4500 124.9500
" />
<path d="M161.8559 124.9500
L164.0059 127.1000
" />
<path d="M172.0000 127.1000
L183.9000 115.2000
" />
<path d="M97.8800 110.0000
L100.8100 112.9300
" />
<path d="M143.4500 124.9500
L161.8559 124.9500
" />
<path d="M137.9779 117.1490
L137.9779 119.4779
" />
</g> 
</svg>
